SplineFontDB: 3.0
FontName: KisStM
FullName: Sorts Mill Kis
FamilyName: Sorts Mill Kis
Weight: Regular
Copyright: Created by trashman with FontForge 2.0 (http://fontforge.sf.net)
UComments: "Cut 3200-dpi samples to 640 pixels high. Scale by a factor of 1.1.+AAoACgAA-Cut 6400-dpi samples to 1280 pixels high. Scale by a factor of 1.1." 
Version: 001.000
ItalicAngle: 0
UnderlinePosition: -100
UnderlineWidth: 49
Ascent: 700
Descent: 300
LayerCount: 3
Layer: 0 0 "Back"  1
Layer: 1 0 "Fore"  0
Layer: 2 0 "backup"  0
NeedsXUIDChange: 1
XUID: [1021 658 797806517 2478896]
FSType: 0
OS2Version: 0
OS2_WeightWidthSlopeOnly: 0
OS2_UseTypoMetrics: 1
CreationTime: 1263111985
ModificationTime: 1265098707
OS2TypoAscent: 0
OS2TypoAOffset: 1
OS2TypoDescent: 0
OS2TypoDOffset: 1
OS2TypoLinegap: 90
OS2WinAscent: 0
OS2WinAOffset: 1
OS2WinDescent: 0
OS2WinDOffset: 1
HheadAscent: 0
HheadAOffset: 1
HheadDescent: 0
HheadDOffset: 1
MarkAttachClasses: 1
DEI: 91125
LangName: 1033 
Encoding: UnicodeBmp
UnicodeInterp: none
NameList: Adobe Glyph List
DisplaySize: -72
AntiAlias: 1
FitToEm: 1
WinInfo: 48 8 6
BeginPrivate: 9
BlueValues 23 [-22 0 392 415 644 664]
OtherBlues 11 [-289 -275]
BlueFuzz 1 0
BlueShift 1 3
BlueScale 8 0.039625
StdHW 4 [21]
StdVW 4 [73]
StemSnapH 7 [21 25]
StemSnapV 7 [73 95]
EndPrivate
BeginChars: 65536 67

StartChar: a
Encoding: 97 97 0
Width: 390
VWidth: 0
Flags: W
HStem: -14 39<86 189.585> -9 48<277 350.155> 368 40<146.241 218.527>
VStem: 32 75<252.631 332.107> 35 79<30.4104 117.904> 241 73<50.2787 188 211 347.598>
DStem2: 180 187 178 157 0.897257 0.441508<-73.2415 55.1742>
LayerCount: 3
Fore
SplineSet
32 290 m 0xb4
 32 359 196 408 209 408 c 0
 281 408 314 355 314 313 c 2
 314 79 l 2
 314 54 320 39 334 39 c 0
 351 39 363 60 371 60 c 0
 375 60 379 57 379 54 c 0
 378 30 334 -9 296 -9 c 0x74
 258 -9 248 32 245 43 c 1
 191 -4 143 -14 122 -14 c 0
 50 -14 35 29 35 64 c 0
 35 132 122 164 180 187 c 2
 241 211 l 1
 241 266 l 2
 241 303 240 308 235 323 c 0
 221 360 187 368 169 368 c 0
 150 368 134 359 114 347 c 0xac
 109 344 104 333 104 318 c 0
 104 308 107 301 107 288 c 0
 107 262 86 248 67 248 c 0
 48 248 32 267 32 290 c 0xb4
241 188 m 1
 178 157 l 2
 155 145 133 132 128 126 c 0
 121 118 114 104 114 82 c 0
 114 53 126 25 155 25 c 0xac
 191 25 241 64 241 68 c 2
 241 188 l 1
EndSplineSet
Validated: 1
Layer: 2
SplineSet
32 290 m 4xb4
 32 359 196 408 209 408 c 4
 281 408 314 355 314 313 c 6
 314 79 l 6
 314 54 325 40 334 40 c 4
 351 40 362 66 370 66 c 4
 374 66 379 61 379 58 c 4
 379 33 337 -8 294 -8 c 4x74
 254 -8 250 31 244 43 c 5
 190 -4 143 -14 122 -14 c 4
 50 -14 35 26 35 61 c 4
 35 129 122 164 180 186 c 6
 241 209 l 5
 241 266 l 6
 241 303 240 308 235 323 c 4
 221 360 187 368 169 368 c 4
 150 368 134 359 114 347 c 4xac
 109 344 104 333 104 318 c 4
 104 308 107 301 107 288 c 4
 107 262 86 248 67 248 c 4
 48 248 32 267 32 290 c 4xb4
238 183 m 4
 235 183 191 164 147 139 c 5
 143 135 114 126 114 79 c 4
 114 50 126 25 155 25 c 4xac
 191 25 241 64 241 68 c 6
 241 175 l 6
 241 181 241 183 238 183 c 4
32 290 m 0xb4
 32 359 196 408 209 408 c 0
 281 408 314 355 314 313 c 2
 314 79 l 2
 314 54 325 40 334 40 c 0
 351 40 362 66 370 66 c 0
 374 66 379 61 379 58 c 0
 379 33 337 -8 294 -8 c 0x74
 254 -8 250 29 244 41 c 1
 190 -6 143 -14 122 -14 c 0
 61 -14 35 26 35 61 c 0
 35 129 122 164 180 186 c 2
 241 209 l 1
 241 266 l 2
 241 303 240 308 235 323 c 0
 227 344 211 367 179 367 c 0
 153 367 137 361 114 347 c 0xac
 109 344 104 333 104 318 c 0
 104 308 107 301 107 288 c 0
 107 262 86 248 67 248 c 0
 48 248 32 267 32 290 c 0xb4
238 183 m 0
 235 183 191 164 147 139 c 1
 143 135 114 126 114 79 c 0
 114 50 126 25 155 25 c 0xac
 191 25 241 62 241 66 c 2
 241 175 l 2
 241 181 241 183 238 183 c 0
EndSplineSet
EndChar

StartChar: M
Encoding: 77 77 1
Width: 912
VWidth: 0
Flags: W
HStem: 0 25<43 90.0761 139.331 194 605 693.175 797.955 868> 621 25<89 175.883 779.222 851>
VStem: 100 34<29.8028 189.835> 698 93<26.8776 266.944>
DStem2: 455 125 435 14 0.411253 0.911521<0 351.209>
LayerCount: 3
Fore
SplineSet
141 621 m 2
 89 621 l 1
 89 646 l 1
 253 646 l 2
 265 646 270 644 275 630 c 2
 455 125 l 1
 686 637 l 2
 689 644 695 646 703 646 c 2
 851 646 l 1
 851 621 l 1
 810 621 l 2
 780 621 772 606 772 577 c 0
 772 564 772 546 773 523 c 2
 791 104 l 2
 794 28 791 25 842 25 c 2
 868 25 l 1
 868 0 l 1
 605 0 l 1
 605 25 l 1
 677 25 l 2
 697 25 698 51 698 96 c 0
 698 133 683 545 680 545 c 0
 678 545 621 439 543 261 c 2
 435 14 l 2
 431 6 430 0 421 0 c 2
 417 0 l 2
 410 0 404 3 400 16 c 0
 399 18 208 547 204 547 c 0
 203 547 192 503 183 441 c 0
 162 303 134 86 134 65 c 0
 134 29 148 25 174 25 c 2
 194 25 l 1
 194 0 l 1
 43 0 l 1
 43 25 l 1
 63 25 l 2
 88 25 94 35 100 75 c 0
 173.893453265 606.425520054 178 592.4140625 178 598 c 0
 178 616 165 621 141 621 c 2
EndSplineSet
Validated: 524289
Layer: 2
SplineSet
141 630 m 6
 89 630 l 5
 89 655 l 5
 253 655 l 6
 265 655 270 653 275 639 c 6
 455 125 l 5
 686 646 l 6
 689 653 695 655 703 655 c 6
 851 655 l 5
 851 630 l 5
 810 630 l 6
 780 630 772 615 772 586 c 4
 772 573 772 555 773 532 c 6
 791 104 l 6
 795 28 791 25 842 25 c 6
 868 25 l 5
 868 0 l 5
 605 0 l 5
 605 25 l 5
 677 25 l 6
 697 25 698 51 698 96 c 4
 698 133 683 554 680 554 c 4
 678 554 621 439 543 261 c 6
 435 14 l 6
 431 6 430 0 421 0 c 6
 417 0 l 6
 410 0 404 3 400 16 c 4
 399 18 208 556 204 556 c 4
 203 556 192 512 183 450 c 4
 162 312 134 86 134 65 c 4
 134 29 148 25 174 25 c 6
 194 25 l 5
 194 0 l 5
 43 0 l 5
 43 25 l 5
 63 25 l 6
 88 25 94 35 100 75 c 4
 173.893453265 606.425520054 178 601.413659352 178 607 c 4
 178 625 165 630 141 630 c 6
EndSplineSet
EndChar

StartChar: b
Encoding: 98 98 2
Width: 463
VWidth: 0
Flags: W
HStem: -14 29<179.863 284.517> 376 27<186.204 287.424> 641 20G<136.5 141.5>
VStem: 70 73<44.2923 344.437 370.002 589.854> 346 88<95.2048 302.985>
LayerCount: 3
Fore
SplineSet
143 392 m 2
 143 372 143 370 146 370 c 0
 149 370 194 403 243 403 c 0
 365 403 434 315 434 202 c 0
 434 73 355 -14 243 -14 c 0
 169 -14 123 20 120 20 c 0
 114 20 81 1 73 1 c 0
 66 1 65 6 65 14 c 0
 67 52 70 121 70 139 c 2
 70 514 l 2
 70 634 9 578 9 611 c 0
 9 622 11 621 20 623 c 0
 67 633 103 647 122 655 c 1
 122 655 134 661 139 661 c 0
 144 661 146 659 146 652 c 0
 146 643 143 625 143 588 c 2
 143 392 l 2
190 365 m 0
 151 342 143 316 143 267 c 2
 143 177 l 2
 143 51 158 15 243 15 c 0
 318 15 346 118 346 207 c 0
 346 265 331 328 294 359 c 0
 278 372 258 376 239 376 c 0
 220 376 202 372 190 365 c 0
EndSplineSet
Validated: 1
Layer: 2
SplineSet
143 402 m 6x7c
 143 382 145 382 148 382 c 4
 151 382 194 409 243 409 c 4
 365 409 434 315 434 202 c 4
 434 73 355 -14 243 -14 c 4xbc
 169 -14 123 20 120 20 c 4
 114 20 81 1 73 1 c 4
 66 1 65 6 65 14 c 4
 67 52 70 121 70 139 c 6
 70 514 l 6
 70 634 9 578 9 611 c 4
 9 622 11 621 20 623 c 4
 67 633 103 647 122 655 c 5
 122 655 134 661 139 661 c 4
 144 661 146 659 146 652 c 4
 146 643 143 625 143 588 c 6
 143 402 l 6x7c
190 367 m 4
 151 344 143 326 143 277 c 6
 143 192 l 6
 143 107 158 15 243 15 c 4
 318 15 346 118 346 207 c 4
 346 265 331 330 294 361 c 4
 278 374 258 379 239 379 c 4
 220 379 202 374 190 367 c 4
EndSplineSet
EndChar

StartChar: c
Encoding: 99 99 3
Width: 399
VWidth: 0
Flags: W
HStem: -12 52<183.727 300.831> 378 24<181.867 259.669>
VStem: 23 79<125.125 290.341>
LayerCount: 3
Fore
SplineSet
380 78 m 0
 380 65 305 -12 217 -12 c 0
 132 -12 23 42 23 198 c 0
 23 307 102 402 237 402 c 0
 296 402 374 373 374 324 c 0
 374 302 358 284 338 284 c 0
 303 284 286 327 273 349 c 0
 259 372 247 378 227 378 c 0
 169 378 102 324 102 218 c 0
 102 90 194 40 256 40 c 0
 311 40 343 66 359 79 c 0
 365 84 370 86 373 86 c 0
 377 86 380 82 380 78 c 0
EndSplineSet
Validated: 1
Layer: 2
SplineSet
380 75 m 4
 380 62 305 -12 217 -12 c 4
 132 -12 23 42 23 198 c 4
 23 307 102 402 237 402 c 4
 296 402 374 373 374 324 c 4
 374 302 358 284 338 284 c 4
 303 284 286 327 273 349 c 4
 259 372 250 378 227 378 c 4
 168 378 102 305 102 211 c 4
 102 94 190 40 256 40 c 4
 311 40 343 63 359 76 c 4
 365 81 370 83 373 83 c 4
 377 83 380 79 380 75 c 4
EndSplineSet
EndChar

StartChar: d
Encoding: 100 100 4
Width: 465
VWidth: 0
Flags: W
HStem: -15 41<170.026 269.051> 371 27<166.184 267.284> 641 20G<376.5 381.5>
VStem: 21 75<113.324 277.779> 310 73<46.0391 339.775 395.021 589.854>
LayerCount: 3
Fore
SplineSet
383 119 m 2
 383 41 392 37 435 37 c 0
 443 37 444 34 444 26 c 0
 444 18 442 15 439 15 c 0
 353 1 339 -16 329 -16 c 0
 327 -16 321 -13 321 -12 c 0
 321 0 320 25 320 34 c 0
 320 37 319 42 318 42 c 0
 316 42 271 -15 191 -15 c 0
 100 -15 21 63 21 181 c 0
 21 258 67 398 248 398 c 0
 259 398 281 396 297 394 c 0
 311 392 310 389 310 404 c 2
 310 514 l 2
 310 634 249 578 249 611 c 0
 249 622 251 621 260 623 c 0
 307 633 343 647 362 655 c 1
 362 655 374 661 379 661 c 0
 384 661 386 659 386 652 c 0
 386 643 383 625 383 588 c 2
 383 119 l 2
217 371 m 0
 131 371 96 295 96 215 c 0
 96 126 145 26 230 26 c 0
 305 26 310 88 310 96 c 2
 310 282 l 2
 310 330 273 371 217 371 c 0
EndSplineSet
Validated: 1
Layer: 2
SplineSet
383 588 m 6
 383 172 l 6
 383 66 386 49 414 42 c 4
 418 41 434 38 436 38 c 4
 444 37 444 34 444 26 c 4
 444 17 441 15 438 15 c 4
 352 1 337 -11 327 -11 c 4
 325 -11 319 -8 319 -7 c 4
 319 5 320 25 320 34 c 4
 320 37 322 44 321 44 c 4
 320 44 313 36 309 31 c 4
 297 19 250 -15 191 -15 c 4
 100 -15 21 63 21 181 c 4
 21 258 67 398 248 398 c 4
 259 398 281 396 297 394 c 4
 311 392 310 389 310 404 c 6
 310 514 l 6
 310 634 249 578 249 611 c 4
 249 622 251 621 260 623 c 4
 307 633 343 647 362 655 c 5
 362 655 374 661 379 661 c 4
 384 661 386 659 386 652 c 4
 386 643 383 625 383 588 c 6
217 371 m 4
 131 371 96 295 96 215 c 4
 96 126 145 26 230 26 c 4
 305 26 310 88 310 96 c 6
 310 282 l 6
 310 330 273 371 217 371 c 4
EndSplineSet
EndChar

StartChar: e
Encoding: 101 101 5
Width: 425
VWidth: 0
Flags: W
HStem: -13 57<182.719 315.006> 252 22<118.026 310.465> 379 25<176.54 269.486>
VStem: 35 73<126.816 272.648> 315 75<274 333.445>
LayerCount: 3
Fore
SplineSet
315 299 m 0
 315 325 286 379 221 379 c 0
 154 379 118 308 118 287 c 0
 118 278 117 274 131 274 c 2
 295 274 l 2
 299 274 315 282 315 299 c 0
108 226 m 0
 108 157.075 139 44 263 44 c 0
 359 44 366 102 383 108 c 0
 388 110 395 102 395 100 c 0
 395 87 359 26 303 2 c 0
 281 -7 256 -13 228 -13 c 0
 116 -13 35 68 35 201 c 0
 35 303 106 404 223 404 c 0
 330 404 386 336 390 271 c 0
 391 259 390 253 372 253 c 2
 126 252 l 2
 109 252 108 242 108 226 c 0
EndSplineSet
Validated: 524289
Layer: 2
SplineSet
310 304 m 0
 310 330 286 379 221 379 c 0
 154 379 121 313 121 292 c 0
 121 283 120 279 134 279 c 2
 295 279 l 2
 299 279 310 287 310 304 c 0
228 -13 m 0
 116 -13 35 68 35 201 c 0
 35 303 106 404 223 404 c 0
 330 404 386 336 390 271 c 0
 391 259 390 253 372 253 c 2
 129 252 l 2
 112 252 111 242 111 226 c 0
 111 201 112 169 124 139 c 0
 144 89 184 44 263 44 c 0
 359 44 366 102 383 108 c 0
 388 110 395 102 395 100 c 0
 395 87 359 26 303 2 c 0
 281 -7 256 -13 228 -13 c 0
315 299 m 4
 315 325 286 379 221 379 c 4
 154 379 118 308 118 287 c 4
 118 278 117 274 131 274 c 6
 295 274 l 6
 299 274 315 282 315 299 c 4
228 -13 m 0
 116 -13 35 68 35 201 c 0
 35 303 106 404 223 404 c 0
 330 404 386 336 390 271 c 0
 391 259 390 253 372 253 c 2
 126 252 l 2
 109 252 108 242 108 226 c 0
 108 156 140 42 276 42 c 0
 361 42 367 102 383 108 c 0
 388 110 395 102 395 100 c 0
 395 87 359 26 303 2 c 0
 281 -7 256 -13 228 -13 c 0
EndSplineSet
EndChar

StartChar: f
Encoding: 102 102 6
Width: 293
VWidth: 0
Flags: W
HStem: 0 21<27 87.125 173.089 245> 353 40<169 277> 615 49<211.932 318>
VStem: 95 73<21.9464 349>
LayerCount: 3
Fore
SplineSet
234 615 m 0
 180 615 169 548 169 474 c 2
 169 393 l 1
 277 393 l 1
 277 353 l 1
 168 353 l 1
 168 68 l 2
 168 37 171 21 194 21 c 2
 245 21 l 1
 245 0 l 1
 27 0 l 1
 27 21 l 1
 59 21 l 2
 86 21 95 24 95 93 c 2
 95 349 l 1
 66 349 l 2
 44 349 35 350 35 359 c 0
 35 376 80 379 87 401 c 0
 108 467 98 526 167 607 c 0
 197 642 248 664 293 664 c 0
 343 664 383 647 383 613 c 0
 383 591 366 573 345 573 c 0
 294 573 276 615 234 615 c 0
EndSplineSet
Validated: 1
Layer: 2
SplineSet
168 353 m 5
 168 68 l 6
 168 37 171 21 194 21 c 6
 245 21 l 5
 245 0 l 5
 27 0 l 5
 27 21 l 5
 59 21 l 6
 86 21 95 24 95 93 c 6
 95 349 l 5
 66 349 l 6
 44 349 35 350 35 359 c 4
 35 376 80 379 87 401 c 4
 108 467 110 570 180 635 c 4
 210 662 245 683 305 683 c 4
 336 683 395 673 395 630 c 4
 395 608 376 586 355 586 c 4
 306 586 286 637 249 637 c 4
 176 637 169 535 169 410 c 6
 169 393 l 5
 277 393 l 5
 277 353 l 5
 168 353 l 5
234 615 m 0
 170 615 169 548 169 474 c 2
 169 393 l 1
 277 393 l 1
 277 353 l 1
 168 353 l 1
 168 68 l 2
 168 37 171 21 194 21 c 2
 245 21 l 1
 245 0 l 1
 27 0 l 1
 27 21 l 1
 59 21 l 2
 86 21 95 24 95 93 c 2
 95 349 l 1
 66 349 l 2
 44 349 35 350 35 359 c 0
 35 376 80 379 87 401 c 0
 108 467 99 525 168 606 c 0
 198 641 248 664 293 664 c 0
 343 664 383 647 383 613 c 0
 383 591 366 573 345 573 c 0
 294 573 276 615 234 615 c 0
EndSplineSet
EndChar

StartChar: g
Encoding: 103 103 7
Width: 442
VWidth: 0
Flags: W
HStem: -289 52<100.787 256.964> -67 64<93.5793 324.236> 91 23<160.633 235.089> 336 66<359.141 431.168> 375 26<159.972 238.534>
VStem: 13 57<-207.296 -129.623> 31 56<-32 53.655> 34 76<159.686 317.067> 283 77<162.528 322.685> 347 49<-176.711 -90.6979>
LayerCount: 3
Fore
SplineSet
101 112 m 0xf2
 101 121 34 145 34 239 c 0
 34 330 112 401 202 401 c 0xe9
 269 401 302 367 304 367 c 0
 307 367 345 402 388 402 c 0
 421 402 435 383 435 365 c 0
 435 350 425 336 407 336 c 0
 376 336 363 363 344 363 c 0
 335 363 324 353 324 350 c 0
 324 339 360 309 360 244 c 0
 360 157 299 91 199 91 c 0
 149 91 136 102 121 102 c 0
 115 102 87 69 87 41 c 0xf280
 87 3 115 -3 176 -3 c 2
 242 -3 l 2
 304 -3 396 -5 396 -101 c 0
 396 -221 255 -289 145 -289 c 0
 73 -289 13 -259 13 -196 c 0xf440
 13 -151 48 -106 71 -83 c 0
 83 -70 91 -64 91 -63 c 0
 91 -60 31 -56 31 -8 c 0
 31 51 101 110 101 112 c 0xf2
118 -65 m 0
 114 -65 70 -102 70 -149 c 0
 70 -218 122 -237 200 -237 c 0
 288 -237 347 -207 347 -136 c 0xe440
 347 -76 287 -67 219 -67 c 2
 154 -67 l 2
 142 -67 129 -66 118 -65 c 0
199 114 m 0
 250 114 283 166 283 246 c 0
 283 332 244 375 199 375 c 0
 142 375 110 313 110 250 c 0xe980
 110 136 168 114 199 114 c 0
EndSplineSet
Validated: 1
Layer: 2
SplineSet
100 110 m 4xf2
 100 119 34 145 34 239 c 4
 34 330 112 401 202 401 c 4xe9
 269 401 302 367 304 367 c 4
 307 367 345 402 388 402 c 4
 421 402 435 383 435 365 c 4
 435 350 425 336 407 336 c 4
 376 336 363 363 344 363 c 4
 335 363 324 353 324 350 c 4
 324 339 360 309 360 244 c 4
 360 157 299 91 199 91 c 4
 157 91 153 97 123 102 c 4
 119 103 117 100 110 94 c 4xf180
 101 85 90 69 90 41 c 4xf2
 90 3 115 0 176 0 c 6
 234 0 l 6
 309 0 345 -5 376 -43 c 4
 389 -58 396 -86 396 -101 c 4
 396 -221 255 -289 145 -289 c 4
 73 -289 13 -259 13 -196 c 4xf440
 13 -151 48 -106 71 -83 c 4
 83 -70 91 -68 91 -67 c 4
 91 -64 31 -56 31 -8 c 4
 31 39 64 75 86 94 c 4
 95 102 100 106 100 110 c 4xf2
118 -69 m 4
 114 -69 70 -108 70 -149 c 4
 70 -202 136 -230 195 -230 c 4
 269 -230 347 -198 347 -136 c 4xe440
 347 -76 287 -70 219 -70 c 6
 154 -70 l 6
 142 -70 129 -70 118 -69 c 4
199 114 m 4
 255 114 283 166 283 246 c 4
 283 332 250 375 199 375 c 4
 135 375 110 313 110 250 c 4xe980
 110 136 157 114 199 114 c 4
EndSplineSet
EndChar

StartChar: h
Encoding: 104 104 8
Width: 465
VWidth: 0
Flags: W
HStem: 0 21<10 60.0225 141.82 197 261 310.576 391.523 444> 355 44<179.712 288.303> 641 20G<130.5 135.5>
VStem: 64 73<21.7904 340.724 366.243 589.854> 315 73<21.1187 326.467>
LayerCount: 3
Fore
SplineSet
137 588 m 2
 137 367 l 2
 137 348 142 356 149 360 c 0
 178 379 220 399 278 399 c 0
 377 399 388 328 388 215 c 2
 388 92 l 2
 388 21 388 21 419 21 c 2
 444 21 l 1
 444 0 l 1
 261 0 l 1
 261 21 l 1
 294 21 l 2
 311 21 315 26 315 93 c 2
 315 214 l 2
 315 294 314 355 220 355 c 0
 186 355 163 344 150 336 c 0
 138 329 137 322 137 311 c 2
 137 80 l 2
 137 24 139 21 177 21 c 2
 197 21 l 1
 197 0 l 1
 10 0 l 1
 10 21 l 1
 29 21 l 2
 64 21 64 24 64 86 c 2
 64 514 l 2
 64 634 3 578 3 611 c 0
 3 622 5 621 14 623 c 0
 61 633 97 647 116 655 c 1
 116 655 128 661 133 661 c 0
 138 661 140 659 140 652 c 0
 140 643 137 625 137 588 c 2
EndSplineSet
Validated: 1
EndChar

StartChar: i
Encoding: 105 105 9
Width: 244
VWidth: 0
Flags: W
HStem: 0 21<25 79.8502 169.891 216> 391 20G<156.5 160.5> 569 91<88.2207 167.134>
VStem: 80 94<577.185 652.67> 90 73<22.5699 333.651>
LayerCount: 3
Fore
SplineSet
40 350 m 0xe8
 40 359 42 360 43 360 c 0
 117 381 154 411 159 411 c 0
 162 411 166 407 166 404 c 0
 166 393 163 327 163 312 c 2
 163 81 l 2
 163 21 176 21 190 21 c 2
 216 21 l 1
 216 0 l 1
 25 0 l 1
 25 21 l 1
 58 21 l 2
 89 21 90 53 90 119 c 2
 90 252 l 2
 90 288 90 306 84 318 c 0
 69 347 40 329 40 350 c 0xe8
125 660 m 0
 158 660 174 636 174 614 c 0
 174 592 159 569 129 569 c 0
 99 569 80 593 80 617 c 0xf0
 80 636 93 660 125 660 c 0
EndSplineSet
Validated: 1
EndChar

StartChar: j
Encoding: 106 106 10
Width: 258
VWidth: 0
Flags: W
HStem: -284 21G<37 44.5> 395 20G<174 177> 569 91<73.2207 152.134>
VStem: 65 94<577.185 652.67> 110 73<-135.33 334.227>
LayerCount: 3
Fore
SplineSet
110 660 m 0xe8
 143 660 159 636 159 614 c 0
 159 592 144 569 114 569 c 0
 84 569 65 593 65 617 c 0xf0
 65 636 78 660 110 660 c 0xe8
110 88 m 2xe8
 110 260 l 2
 110 341 98 333 50 343 c 0
 45 344 43 347 43 351 c 2
 43 354 l 2
 43 358 43 362 47 363 c 0
 123 386 173 415 175 415 c 0
 179 415 185 411 185 406 c 0
 184 370 183 339 183 306 c 2
 183 -20 l 2
 183 -140 122 -214 98 -237 c 0
 82 -253 47 -284 42 -284 c 0
 32 -284 23 -273 23 -264 c 0
 23 -258 45 -248 68 -218 c 0
 107 -168 110 -113 110 88 c 2xe8
EndSplineSet
Validated: 1
EndChar

StartChar: k
Encoding: 107 107 11
Width: 461
VWidth: 0
Flags: W
HStem: 0 21<17 67.2707 152.098 203 258 292.993 397.554 444> 178 23<147 198.812> 372 21<252 296.017 383.053 434> 641 20G<140.5 145.5>
VStem: 74 73<21.5173 178 201 589.854>
DStem2: 267 200 199 173 0.60185 -0.798609<-24.48 152.695> 231 236 271 245 0.620054 0.784559<2.60767 128.508>
LayerCount: 3
Fore
SplineSet
147 201 m 1
 163 201 l 2
 194 201 203.922497998 201.738670937 231 236 c 2
 280 298 l 2
 293 315 301 334 301 345 c 0
 301 372 277 372 261 372 c 2
 252 372 l 1
 252 393 l 1
 434 393 l 1
 434 372 l 1
 420 372 l 2
 403 372 377 367 336 323 c 0
 310 296 285 265 271 245 c 0
 260 230 254 224 254 221 c 0
 254 218 257.128922138 213.09816101 267 200 c 2
 371 62 l 2
 401 23 407 21 429 21 c 2
 444 21 l 1
 444 0 l 1
 258 0 l 1
 258 21 l 1
 275 21 l 2
 284 21 293 21 293 28 c 0
 293 36.2549073862 292 51 247 110 c 2
 199 173 l 2
 195 177 190 178 177 178 c 2
 147 178 l 1
 147 97 l 2
 147 27 147 21 181 21 c 2
 203 21 l 1
 203 0 l 1
 17 0 l 1
 17 21 l 1
 45 21 l 2
 68 21 74 21 74 116 c 2
 74 514 l 2
 74 634 13 578 13 611 c 0
 13 622 15 621 24 623 c 0
 71 633 107 647 126 655 c 1
 126 655 138 661 143 661 c 0
 148 661 150 659 150 652 c 0
 150 643 147 625 147 588 c 2
 147 201 l 1
EndSplineSet
Validated: 524289
Layer: 2
SplineSet
147 191 m 5
 163 191 l 6
 194 191 196 191 231 236 c 6
 280 298 l 6
 293 315 301 334 301 345 c 4
 301 372 277 372 261 372 c 6
 252 372 l 5
 252 393 l 5
 434 393 l 5
 434 372 l 5
 420 372 l 6
 403 372 377 367 336 323 c 4
 310 296 285 265 271 245 c 4
 260 230 254 224 254 221 c 4
 254 218 257.128922138 213.09816101 267 200 c 6
 371 62 l 6
 401 23 407 21 429 21 c 6
 444 21 l 5
 444 0 l 5
 258 0 l 5
 258 21 l 5
 275 21 l 6
 284 21 293 21 293 28 c 4
 293 38.576363475 289.531062672 47.5728950937 199 163 c 4
 195 167 190 168 177 168 c 6
 147 168 l 5
 147 97 l 6
 147 27 147 21 181 21 c 6
 203 21 l 5
 203 0 l 5
 17 0 l 5
 17 21 l 5
 45 21 l 6
 68 21 74 21 74 116 c 6
 74 514 l 6
 74 634 13 578 13 611 c 4
 13 622 15 621 24 623 c 4
 71 633 107 647 126 655 c 5
 126 655 138 661 143 661 c 4
 148 661 150 659 150 652 c 4
 150 643 147 625 147 588 c 6
 147 191 l 5
EndSplineSet
EndChar

StartChar: l
Encoding: 108 108 12
Width: 239
VWidth: 0
Flags: W
HStem: 0 21<26 78.5504 165.577 218> 641 20G<151.5 156.5>
VStem: 85 73<22.3981 589.854>
LayerCount: 3
Fore
SplineSet
158 97 m 2
 158 24 162 21 202 21 c 2
 218 21 l 1
 218 0 l 1
 26 0 l 1
 26 21 l 1
 56 21 l 2
 83 21 85 35 85 94 c 2
 85 514 l 2
 85 634 24 578 24 611 c 0
 24 622 26 621 35 623 c 0
 82 633 118 647 137 655 c 1
 137 655 149 661 154 661 c 0
 159 661 161 659 161 652 c 0
 161 643 158 625 158 588 c 2
 158 97 l 2
EndSplineSet
Validated: 1
EndChar

StartChar: m
Encoding: 109 109 13
Width: 716
VWidth: 0
Flags: W
HStem: 0 21<14 62.5439 144.346 199 265 318.528 401.098 455 520 571.625 657.527 702> 359 46<199.377 298.094 450.752 556.067> 395 20G<131 135.5>
VStem: 67 73<21.5358 332.925> 323 73<21.5638 333.424> 579 73<21.7122 335.736>
CounterMasks: 1 1c
LayerCount: 3
Fore
SplineSet
386 343 m 0xdc
 395 343 456 405 530 405 c 0
 593 405 652 374 652 272 c 2
 652 76 l 2
 652 22 659 21 691 21 c 2
 702 21 l 1
 702 0 l 1
 520 0 l 1
 520 21 l 1
 550 21 l 2
 569 21 579 26 579 89 c 2
 579 211 l 2
 579 290 578 363 493 363 c 0
 459 363 417 343 402 319 c 0
 400 316 394 310 394 302 c 0
 394 280 396 239 396 225 c 2
 396 104 l 2
 396 25 396 21 430 21 c 2
 455 21 l 1
 455 0 l 1
 265 0 l 1
 265 21 l 1
 287 21 l 2
 316 21 323 23 323 67 c 2
 323 214 l 2
 323 291 319 359 244 359 c 0
 210 359 164 340 148 322 c 0
 140 313 140 302 140 283 c 2
 140 67 l 2
 140 29 143 21 172 21 c 2
 199 21 l 1
 199 0 l 1
 14 0 l 1
 14 21 l 1
 40 21 l 2
 58 21 67 23 67 67 c 2
 67 281 l 2
 67 363.557421875 16 317.27890625 16 350 c 0
 16 356 16 358 21 359 c 0xdc
 81 373 129 415 133 415 c 0xbc
 138 415 141 410 141 406 c 0
 141 396 138 353 138 351 c 0
 137 340 141 345 150 351 c 0
 186.767888445 374.150151984 213.362225709 405 290 405 c 0
 370 405 378 343 386 343 c 0xdc
EndSplineSet
Validated: 1
Layer: 2
SplineSet
386 349 m 4
 397 349 445 401 530 401 c 4
 593 401 642 374 646 272 c 4
 652 149 651 77 652 66 c 4
 654 30 668 22 682 19 c 4
 692 17 700 16 700 12 c 4
 700 0 700 -2 684 -2 c 4
 680 -2 638 0 620 0 c 4
 584 0 548 -2 530 -2 c 4
 523 -2 519 -1 520 9 c 4
 521 20 526 18 532 19 c 4
 576 24 579 26 579 89 c 6
 579 206 l 6
 579 287 576 363 493 363 c 4
 459 363 417 343 402 319 c 4
 400 316 394 310 394 302 c 4
 394 280 396 244 396 230 c 6
 396 104 l 6
 396 25 399 26 430 22 c 4
 453 19 454 15 454 8 c 4
 454 -1 450 -2 444 -2 c 4
 430 -2 436 0 363 0 c 4
 326 0 287 -2 277 -2 c 4
 276 -2 275 -2 274 -2 c 4
 268 -2 265 -1 265 9 c 4
 265 20 269 18 275 19 c 4
 310 25 314 26 320 43 c 4
 322 48 323 56 323 67 c 6
 323 214 l 6
 323 291 319 359 244 359 c 4
 211 359 164 342 148 324 c 4
 140 315 140 304 140 285 c 6
 140 76 l 6
 140 38 143 26 180 21 c 4
 202 18 200 15 200 7 c 4
 200 -2 194 -2 188 -2 c 4
 176 -2 122 0 107 0 c 4
 77 0 37 -1 29 -1 c 4
 20 -1 16 0 16 9 c 4
 16 20 25 19 42 23 c 4
 52 25 67 28 67 72 c 6
 67 288 l 6
 67 321 65 330 36 337 c 4
 17 342 16 340 16 352 c 4
 16 358 16 360 21 361 c 4
 81 375 129 402 133 402 c 4
 138 402 141 397 141 393 c 4
 141 383 140 360 140 358 c 4
 140 348 143 352 152 357 c 4
 176 372 231 401 290 401 c 4
 370 401 378 349 386 349 c 4
EndSplineSet
EndChar

StartChar: n
Encoding: 110 110 14
Width: 460
VWidth: 0
Flags: W
HStem: 0 21<14 59.9038 142.058 198 263 315.94 398.139 446> 357 48<199.969 300.112> 393 20G<129 133.5>
VStem: 65 73<21.6064 326.614> 321 73<22.0011 335.623>
LayerCount: 3
Fore
SplineSet
284 405 m 0xd8
 372 405 394 351 394 232 c 2
 394 66 l 2
 394 21 402 21 426 21 c 2
 446 21 l 1
 446 0 l 1
 263 0 l 1
 263 21 l 1
 276 21 l 2
 317 21 321 24 321 69 c 2
 321 226 l 2
 321 342 297 357 239 357 c 0xd8
 220 357 199 350 179 339 c 0
 143 318 138 310 138 270 c 2
 138 74 l 2
 138 24 139 21 178 21 c 2
 198 21 l 1
 198 0 l 1
 14 0 l 1
 14 21 l 1
 35 21 l 2
 57 21 65 24 65 72 c 2
 65 282 l 2
 65 347 28 332 17 340 c 0
 15 342 14 345 14 350 c 0
 14 356 16 359 21 360 c 0
 81 374 127 413 131 413 c 0xb8
 136 413 139 408 139 404 c 0
 139 393 137 370 135 346 c 0
 134 331 135.817382812 333.084960938 146 343 c 0
 184 380 228.799804688 405 284 405 c 0xd8
EndSplineSet
Validated: 524289
EndChar

StartChar: o
Encoding: 111 111 15
Width: 450
VWidth: 0
Flags: W
HStem: -16 26<172.556 276.377> 374 31<174.859 283.811>
VStem: 21 83<94.2225 286.541> 348 81<93.5451 289.212>
LayerCount: 3
Fore
SplineSet
429 188 m 0
 429 70 342 -16 220 -16 c 0
 118 -16 21 60 21 194 c 0
 21 303 105 405 233 405 c 0
 362 405 429 294 429 188 c 0
227 374 m 0
 152 374 104 303 104 189 c 0
 104 92 141 10 222 10 c 0
 302 10 348 69 348 189 c 0
 348 308 304 374 227 374 c 0
EndSplineSet
Validated: 1
Layer: 2
SplineSet
220 -15 m 4
 127 -15 21 61 21 195 c 4
 21 304 105 406 233 406 c 4
 357 406 429 293 429 189 c 4
 429 142 413 100 382 63 c 4
 346 20 290 -15 220 -15 c 4
350 190 m 4
 350 309 286 372 227 375 c 4
 214 375 190.585015224 374.393972923 162 347 c 4
 118.585015224 305.393972923 104 245 104 190 c 4
 104 93 141 11 222 11 c 4
 278 11 350 70 350 190 c 4
EndSplineSet
EndChar

StartChar: p
Encoding: 112 112 16
Width: 469
VWidth: 0
Flags: W
HStem: -275 21<11 69.869 155.5 223> -4 25<200.582 285.93> 365 41<197.47 297.21> 395 20G<135.5 139.5>
VStem: 76 73<-253.255 5.16795 59.6807 335.964> 359 83<107.499 298.747>
LayerCount: 3
Fore
SplineSet
189 -254 m 2xec
 223 -254 l 1
 223 -275 l 1
 11 -275 l 1
 11 -254 l 1
 41 -254 l 2
 75 -254 76 -247 76 -172 c 2
 76 301 l 2
 76 353 22 331 22 352 c 0
 22 361 24 362 25 362 c 0
 108 386 133 415 138 415 c 0xdc
 141 415 145 411 145 408 c 0
 145 397 146 367 146 352 c 0
 146 345 145 343 155 353 c 0
 164 362 204 406 277 406 c 0
 378 406 442 304 442 202 c 0
 442 151 423 97 389 59 c 0
 359 25 305 -4 249 -4 c 0
 206 -4 174 4 159 8 c 0
 148 11 149 8 149 2 c 2
 149 -172 l 2
 149 -254 153 -254 189 -254 c 2xec
242 21 m 0
 287 21 359 61 359 196 c 0
 359 308 302 365 236 365 c 0xec
 212 365 192 358 178 348 c 0
 153 330 149 316 149 303 c 2
 149 117 l 2
 149 73 192 21 242 21 c 0
EndSplineSet
Validated: 1
EndChar

StartChar: q
Encoding: 113 113 17
Width: 459
VWidth: 0
Flags: W
HStem: -275 21<239 311.798 399.07 457> -7 33<188.927 303.583> 382 26<168.423 263.48>
VStem: 25 84<107.961 300.713> 321 73<-252.08 9 34.0505 342.156>
LayerCount: 3
Fore
SplineSet
220 408 m 0
 294 408 354 383 358 383 c 0
 361 383 362 387 371 394 c 0
 386 407 387 408 390 408 c 0
 396 408 400 405 400 400 c 0
 400 351 394 389 394 264 c 2
 394 -173 l 2
 394 -246 394 -254 425 -254 c 2
 457 -254 l 1
 457 -275 l 1
 239 -275 l 1
 239 -254 l 1
 286 -254 l 2
 321 -254 321 -228 321 -172 c 2
 321 9 l 2
 321 19 318 16 310 12 c 0
 293 4 261 -7 210 -7 c 0
 60 -7 25 135 25 206 c 0
 25 333 121 408 220 408 c 0
257 26 m 0
 319 26 321 59 321 72 c 2
 321 289 l 2
 321 343 260 382 215 382 c 0
 128 381 109 288 109 221 c 0
 109 132 140 26 257 26 c 0
EndSplineSet
Validated: 1
Layer: 2
SplineSet
220 412 m 4
 294 412 354 383 358 383 c 4
 361 383 362 387 371 394 c 4
 386 407 387 408 390 408 c 4
 396 408 400 405 400 400 c 4
 400 351 394 389 394 264 c 6
 394 -173 l 6
 394 -246 394 -254 425 -254 c 6
 457 -254 l 5
 457 -275 l 5
 239 -275 l 5
 239 -254 l 5
 286 -254 l 6
 321 -254 321 -228 321 -172 c 6
 321 9 l 6
 321 19 318 15 310 12 c 4
 293 5 257 -7 210 -7 c 4
 60 -7 23 137 23 206 c 4
 23 329 121 412 220 412 c 4
257 26 m 4
 319 26 321 59 321 72 c 6
 321 289 l 6
 321 343 260 382 215 382 c 4
 150 381 110 329 110 243 c 4
 110 152 130 26 257 26 c 4
EndSplineSet
EndChar

StartChar: r
Encoding: 114 114 18
Width: 348
VWidth: 0
Flags: W
HStem: 0 21<23 78.0699 170.51 242> 349 58<215.318 287.5>
VStem: 86 73<23.6474 326.8>
LayerCount: 3
Fore
SplineSet
291 311 m 0
 245 311 251 349 222 349 c 0
 194 349 160 307 160 299 c 0
 159 225 159 265 159 128 c 0
 159 22 168 21 207 21 c 2
 242 21 l 1
 242 0 l 1
 23 0 l 1
 23 21 l 1
 40 21 l 2
 85 21 86 24 86 117 c 2
 86 304 l 2
 86 355 40 331 40 352 c 0
 40 361 42 362 43 362 c 0
 123 385 148 413 153 413 c 0
 156 413 160 409 160 406 c 0
 160 395 157 369 157 350 c 0
 157 338 158 339 168 348 c 0
 188 367 234 407 274 407 c 0
 301 407 327 385 327 355 c 0
 327 334 313 311 291 311 c 0
EndSplineSet
Validated: 1
EndChar

StartChar: s
Encoding: 115 115 19
Width: 338
VWidth: 0
Flags: W
HStem: -12 28<118.843 225.506> 378 26<129.757 211.048>
VStem: 41 27<95.1462 136.906> 53 60<274.578 362.104> 244 58<31.3135 126.236>
LayerCount: 3
Fore
SplineSet
190 -12 m 0xd8
 158 -12 125 -5 102 -5 c 0
 81 -5 72 -7 64 -7 c 0
 54 -7 52 -4 52 8 c 0
 49 112 41 94 41 126 c 0xe8
 41 133 44 135 53 137 c 0xd8
 60 139 65 137 68 127 c 0xe8
 95 52 130 16 184 16 c 0
 222 16 244 39 244 74 c 0
 244 124 201 147 150 177 c 0
 107 202 53 227 53 292 c 0
 53 360 96 404 173 404 c 0
 222 404 248 394 256 394 c 0
 258 394 275 398 278 398 c 0
 286 398 288 397 288 386 c 0
 288 313 296 309 296 291 c 0
 296 282 296 279 285 278 c 0
 277 277 276 280 273 284 c 0
 261 300 238 378 166 378 c 0
 136 378 113 361 113 320 c 0
 113 276 157 258 201 233 c 0
 251 205 302 179 302 102 c 0
 302 19 239 -12 190 -12 c 0xd8
EndSplineSet
Validated: 1
Layer: 2
SplineSet
190 -12 m 4xd8
 158 -12 127 -5 104 -5 c 4
 83 -5 70 -7 62 -7 c 4
 52 -7 50 -4 50 8 c 4
 50 120 43 94 43 126 c 4
 43 133 46 135 55 137 c 4
 62 139 67 137 70 127 c 4xe8
 97 52 130 16 184 16 c 4
 222 16 244 39 244 74 c 4
 244 124 201 145 150 175 c 4
 107 200 53 225 53 290 c 4
 53 358 96 404 173 404 c 4
 222 404 246 394 254 394 c 4
 256 394 277 400 280 400 c 4
 288 400 290 397 290 386 c 4
 290 325 294 307 294 293 c 4
 294 284 294 281 283 280 c 4
 275 279 274 282 271 286 c 4
 259 302 238 378 166 378 c 4
 130 378 113 359 113 318 c 4
 113 272 157 256 201 231 c 4
 252 202 302 180 302 106 c 4
 302 20 232 -12 190 -12 c 4xd8
190 -12 m 0xd8
 158 -12 127 -5 104 -5 c 0
 94 -5 66 -7 62 -7 c 0
 50 -7 50 0 50 8 c 0
 50 16 51 21 51 36 c 0
 51 75 43 111 43 126 c 0
 43 133 46 136 55 137 c 0
 61 138 67 137 70 127 c 0xe8
 97 52 130 16 184 16 c 0
 222 16 244 39 244 74 c 0
 244 124 201 145 150 175 c 0
 107 200 53 225 53 290 c 0
 53 358 96 404 173 404 c 0
 222 404 246 392 254 392 c 0
 256 392 275 399 280 399 c 0
 288 399 290 396 290 385 c 0
 290 376 289 350 289 339 c 0
 289 326 294 300 294 291 c 0
 294 282 289 278 283 278 c 0
 279 278 274 280 271 284 c 0
 259 300 238 378 166 378 c 0
 130 378 114 359 114 318 c 0
 114 272 157 256 201 231 c 0
 252 202 302 180 302 106 c 0
 302 20 232 -12 190 -12 c 0xd8
EndSplineSet
EndChar

StartChar: t
Encoding: 116 116 20
Width: 312
VWidth: 0
Flags: W
HStem: -9 41<171.651 253.721> 349 44<152 282>
VStem: 78 73<51.0586 344>
LayerCount: 3
Fore
SplineSet
151 138 m 2
 151 66 170 32 219 32 c 0
 249 32 268 37 280 39 c 0
 284 40 288 36 288 32 c 0
 288 31 287 29 286 28 c 0
 262 12 208 -9 185 -9 c 0
 91 -9 78 46 78 138 c 2
 78 344 l 1
 52 345 l 2
 42 345 30 345 30 361 c 0
 30 376 55 385 119 460 c 0
 125 466 128 473 141 473 c 0
 147 473 152 463 152 449 c 2
 152 393 l 1
 282 393 l 1
 282 349 l 1
 151 349 l 1
 151 138 l 2
EndSplineSet
Validated: 1
Layer: 2
SplineSet
151 138 m 6
 151 66 170 32 219 32 c 4
 249 32 268 37 280 39 c 4
 286 40 291 31 286 28 c 4
 262 12 208 -9 185 -9 c 4
 91 -9 78 46 78 138 c 6
 78 344 l 5
 52 345 l 6
 42 345 30 345 30 361 c 4
 30 376 61 385 125 460 c 4
 131 466 136 471 141 471 c 4
 147 471 152 463 152 449 c 6
 152 393 l 5
 282 393 l 5
 282 349 l 5
 151 349 l 5
 151 138 l 6
EndSplineSet
EndChar

StartChar: u
Encoding: 117 117 21
Width: 492
VWidth: 0
Flags: W
HStem: -16 42<194.728 296.218> 14 23<418.312 462.174> 371 21<27 75.5683 249 315.336>
VStem: 90 73<60.2093 364.654> 339 73<50.2856 359.368>
LayerCount: 3
Fore
SplineSet
321 23 m 0x78
 303 4 261 -16 222 -16 c 0
 103 -16 90 76 90 177 c 2
 90 319 l 2
 90 364 75 367 27 371 c 1
 27 392 l 1
 121 392 146 398 159 398 c 0
 163 398 163 395 163 381 c 2
 163 195 l 2
 163 137 163 97 179 67 c 0
 194 39 216 26 251 26 c 0xb8
 294 26 339 58 339 83 c 2
 339 308 l 2
 339 364 317 366 249 371 c 1
 249 392 l 1
 386 392 388 398 404 398 c 0
 410 398 412 395 412 380 c 2
 412 97 l 2
 412 41 420 37 439 37 c 2
 449 37 l 2
 462 37 469 36 469 27 c 2
 469 21 l 2
 469 17 469 15 461 14 c 0x78
 448 11 407 6 361 -11 c 0
 353 -14 349 -16 347 -16 c 0xb8
 344 -16 341 -13 341 -10 c 2
 340 37 l 2
 340 48 330 32 321 23 c 0x78
EndSplineSet
Validated: 1
Layer: 2
SplineSet
319 23 m 4x78
 296 4 261 -15 222 -15 c 4
 103 -15 90 76 90 177 c 6
 90 319 l 6
 90 364 75 367 27 371 c 5
 27 392 l 5
 121 392 146 398 159 398 c 4
 163 398 163 395 163 381 c 6
 163 195 l 6
 163 137 163 97 179 67 c 4
 194 39 216 26 251 26 c 4xb8
 294 26 339 58 339 83 c 6
 339 308 l 6
 339 364 317 366 249 371 c 5
 249 392 l 5
 386 392 388 398 404 398 c 4
 410 398 412 395 412 380 c 6
 412 100 l 6
 412 33 423 33 449 33 c 4
 462 33 469 32 469 23 c 6
 469 17 l 6
 469 13 469 11 461 10 c 4
 447 7 412 5 350 -13 c 4
 346 -14 341 -11 341 -7 c 6
 340 37 l 6
 340 48 329 31 319 23 c 4x78
EndSplineSet
EndChar

StartChar: v
Encoding: 118 118 22
Width: 448
VWidth: 0
Flags: W
HStem: -8 21G<206 218> 372 21<9 49.0107 150.185 204 265 323.637 386.689 432>
DStem2: 180 239 93 264 0.370139 -0.928976<-125.32 153.712> 259 141 275 113 0.391057 0.920366<-48.2486 210.479>
LayerCount: 3
Fore
SplineSet
331 340 m 0
 331 371 307 372 270 372 c 2
 265 372 l 1
 265 393 l 1
 432 393 l 1
 432 372 l 1
 422 372 l 2
 378 372 375 353 332 249 c 2
 275 113 l 25
 233 16 l 2
 226 -1 222 -8 214 -8 c 2
 210 -8 l 2
 202 -8 199 -2 195 8 c 2
 93 264 l 2
 53 365 52 372 19 372 c 2
 9 372 l 1
 9 393 l 1
 204 393 l 1
 204 372 l 1
 196 372 l 2
 153 372 148 363 148 354 c 2
 148 352 l 2
 148 330 163 285 180 239 c 0
 199 188 221 136 228 119 c 0
 234 105 237 97 239 97 c 0
 242 97 248 116 259 141 c 0
 278 183 288 204 304 247 c 0
 320 291 331 321 331 340 c 0
EndSplineSet
Validated: 1
EndChar

StartChar: w
Encoding: 119 119 23
Width: 700
VWidth: 0
Flags: W
HStem: -8 98<227.5 261 448 485> 372 21<23 63.9338 162.78 212 273 313.744 406.048 462 530 585.453 641.173 683>
VStem: 349 53<266.656 339.916>
DStem2: 204 224 91 306 0.378125 -0.925755<-137.54 145.186> 271 106 269 39 0.436904 0.899508<-19.1532 152.151> 419 281 328 337 0.308879 -0.951101<-69.4273 -9.39118 29.9695 200.711> 503 131 487 28 0.405773 0.913974<-44.2068 232.244>
LayerCount: 3
Fore
SplineSet
540 372 m 2
 530 372 l 1
 530 393 l 1
 683 393 l 1
 683 372 l 1
 670 372 l 2
 632 372 628 346 590 260 c 2
 487 28 l 2
 473 -4 468 -8 457 -8 c 0
 439 -8 437 0 429 26 c 2
 369 213 l 2
 366 223 363 231 362 231 c 0
 360 231 356 224 353 218 c 0
 289 84 293 94 269 39 c 0
 251 -3 250 -8 235 -8 c 0
 220 -8 218 -4 207 22 c 0
 157 144 129 209 91 306 c 0
 65 372 62 372 27 372 c 2
 23 372 l 1
 23 393 l 1
 212 393 l 1
 212 372 l 1
 204 372 l 2
 175 372 162 371 162 356 c 0
 162 344 171 306 204 224 c 2
 251 106 l 2
 255 96 258 90 260 90 c 0
 262 90 266 95 271 106 c 2
 339 246 l 2
 346 260 349 264 349 268 c 0
 349 271 348 274 345 283 c 2
 328 337 l 2
 318 369 301 372 276 372 c 2
 273 372 l 1
 273 393 l 1
 462 393 l 1
 462 372 l 1
 449 372 l 2
 413 372 402 365 402 349 c 0
 402 338 407 317 419 281 c 2
 470 128 l 2
 474 115 480 91 484 91 c 0
 486 91 499 122 503 131 c 0
 511 148 556 237 578 299 c 0
 585 319 590 336 590 347 c 0
 590 367 575 372 540 372 c 2
EndSplineSet
Validated: 1
EndChar

StartChar: x
Encoding: 120 120 24
Width: 456
VWidth: 0
Flags: W
HStem: 0 21<21 68 127.049 172 240 278.531 376.228 432> 372 21<30 76.075 180.709 217 259 302.44 366.534 415>
VStem: 194 61<180.25 219.562>
DStem2: 126 100 144 80 0.589469 0.807791<-49.2424 100.197> 216 274 181 206 0.541764 -0.840531<-84.9955 45.7292 86.7942 234.451> 250 250 278 250 0.569899 0.821715<-17.9683 111.961>
LayerCount: 3
Fore
SplineSet
217 372 m 1
 203 372 l 2
 192 372 179 370 179 352 c 0
 179 337 199 302 216 274 c 2
 230 250 l 2
 236 240 238 235 240 235 c 0
 242 235 244 240 250 250 c 2
 271 283 l 2
 279 297 305 329 305 351 c 0
 305 372 286 372 264 372 c 2
 259 372 l 1
 259 393 l 1
 415 393 l 1
 415 372 l 1
 402 372 l 2
 364 372 342 342 321 312 c 2
 278 250 l 2
 262 226 255 220 255 214 c 0
 255 210 259 207 265 197 c 2
 352 63 l 2
 369 36 381 21 402 21 c 2
 432 21 l 1
 432 0 l 1
 240 0 l 1
 240 21 l 1
 249 21 l 2
 269 21 279 24 279 35 c 0
 279 49 262 77 232 126 c 2
 215 154 l 2
 210 162 209 165 207 165 c 0
 205 165 204 162 198 154 c 2
 144 80 l 2
 131 61 126 50 126 38 c 0
 126 25 134 21 157 21 c 2
 172 21 l 1
 172 0 l 1
 21 0 l 1
 21 21 l 1
 34 21 l 2
 63 21 65 22 126 100 c 0
 142 120 156 139 172 158 c 0
 188 177 194 180 194 185 c 0
 194 189 189 193 181 206 c 2
 103 330 l 2
 81 365 64 372 41 372 c 2
 30 372 l 1
 30 393 l 1
 217 393 l 1
 217 372 l 1
EndSplineSet
Validated: 1
Layer: 2
SplineSet
217 372 m 5
 203 372 l 6
 192 372 179 370 179 352 c 4
 179 337 199 302 216 274 c 6
 230 250 l 6
 236 240 238 235 240 235 c 4
 242 235 244 240 250 250 c 6
 271 283 l 6
 279 297 305 329 305 351 c 4
 305 372 286 372 264 372 c 6
 259 372 l 5
 259 393 l 5
 415 393 l 5
 415 372 l 5
 402 372 l 6
 364 372 342 342 321 312 c 6
 278 250 l 6
 262 226 255 220 255 214 c 4
 255 210 259 207 265 197 c 6
 352 63 l 6
 369 36 381 21 402 21 c 6
 432 21 l 5
 432 0 l 5
 240 0 l 5
 240 21 l 5
 249 21 l 6
 269 21 279 24 279 35 c 4
 279 49 263 77 233 126 c 6
 216 154 l 6
 211 162 210 165 208 165 c 4
 206 165 204 162 198 154 c 6
 144 80 l 6
 131 61 126 50 126 38 c 4
 126 25 134 21 157 21 c 6
 172 21 l 5
 172 0 l 5
 21 0 l 5
 21 21 l 5
 34 21 l 6
 63 21 65 22 126 100 c 4
 142 120 156 139 172 158 c 4
 188 177 194 180 194 185 c 4
 194 189 191 193 183 206 c 6
 105 330 l 6
 83 365 70 372 41 372 c 6
 33 372 l 5
 33 393 l 5
 217 393 l 5
 217 372 l 5
EndSplineSet
EndChar

StartChar: y
Encoding: 121 121 25
Width: 490
VWidth: 0
Flags: W
HStem: -286 77<35.7045 107.892> 372 21<8 58.4848 159.568 217 298 356.24 438.721 480>
DStem2: 135 -158 147 -204 0.442725 0.896658<-63.7385 168.579 261.231 547.936> 179 263 138 168 0.366332 -0.930484<-86.7634 201.985>
LayerCount: 3
Fore
SplineSet
94 -209 m 0
 100 -209 118 -187 135 -158 c 0
 151 -131 170 -101 183 -69 c 0
 195 -38 202 -25 202 -2 c 0
 202 5 199 13 188 41 c 2
 138 168 l 2
 60 365 66 372 34 372 c 2
 8 372 l 1
 8 393 l 1
 217 393 l 1
 217 372 l 1
 200 372 l 2
 169 372 156 368 156 348 c 0
 156 331 165 300 179 263 c 0
 197 214 222 154 244 98 c 0
 250 81 250 75 253 75 c 0
 256 75 260 83 267 98 c 2
 308 184 l 2
 344 259 365 310 365 341 c 0
 365 362 350 372 310 372 c 2
 298 372 l 1
 298 393 l 1
 480 393 l 1
 480 372 l 1
 477 372 l 2
 438 372 425 359 384 276 c 2
 208 -89 l 25
 147 -204 l 2
 123 -251 101 -286 61 -286 c 0
 23 -286 8 -261 8 -237 c 0
 8 -214 24 -190 55 -190 c 0
 78 -190 84 -209 94 -209 c 0
EndSplineSet
Validated: 1
Layer: 2
SplineSet
94 -209 m 4
 100 -209 116 -187 133 -158 c 4
 149 -131 166 -101 179 -69 c 4
 191 -38 203 -13 203 -2 c 4
 203 5 199 13 188 41 c 6
 138 168 l 6
 60 365 66 372 34 372 c 6
 8 372 l 5
 8 393 l 5
 217 393 l 5
 217 372 l 5
 200 372 l 6
 169 372 156 368 156 348 c 4
 156 341 158 320 167 292 c 4
 186 235 222 150 242 98 c 4
 248 81 250 75 253 75 c 4
 256 75 260 83 267 98 c 6
 308 184 l 6
 344 259 369 310 369 341 c 4
 369 362 354 372 314 372 c 6
 302 372 l 5
 302 393 l 5
 484 393 l 5
 484 372 l 5
 481 372 l 6
 442 372 428 359 387 276 c 6
 208 -89 l 5
 147 -204 l 6
 123 -251 101 -286 61 -286 c 4
 23 -286 8 -261 8 -237 c 4
 8 -214 24 -190 55 -190 c 4
 78 -190 84 -209 94 -209 c 4
EndSplineSet
EndChar

StartChar: z
Encoding: 122 122 26
Width: 383
VWidth: 0
Flags: W
HStem: -7 21G<322 329.5> 0 29<110.008 293.457> 365 28<90.3921 239.999>
VStem: 16 94<15.6562 56.5489>
DStem2: 20 32 135 78 0.569721 0.821838<57.938 393.939>
LayerCount: 3
Fore
SplineSet
356 120 m 0x70
 360 120 370 116 370 109 c 0
 370 108 369 107 369 106 c 0
 366 97 351 42 341 0 c 0x70
 340 -5 333 -7 326 -7 c 0xb0
 318 -7 290 0 276 0 c 2
 29 0 l 2
 23 0 12 2 12 13 c 0
 12 18 15 24 20 32 c 2
 192 283 l 2
 220 325 240 356 240 359 c 0
 240 365 239 365 208 365 c 2
 173 365 l 2
 150 365 120 364 108 360 c 0
 62 345 48 286 30 286 c 0
 19 286 16 293 16 299 c 0
 16 306 24 330 38 376 c 0
 43 392 42 406 54 406 c 0
 66 406 73 395 91 393 c 0
 95 393 99 393 103 393 c 0
 168 393 278 394 329 394 c 0
 334 394 344 390 344 384 c 0
 344 371 330 360 309 329 c 2
 135 78 l 2
 120 56 110 42 110 40 c 0
 110 30 121 29 149 29 c 2
 198 29 l 2
 227 29 272 34 285 38 c 0
 300 43 314 72 346 114 c 0
 348 118 352 120 356 120 c 0x70
EndSplineSet
Validated: 1
Layer: 2
SplineSet
116 40 m 4x60
 116 30 127 29 155 29 c 6
 204 29 l 6
 233 29 278 34 291 38 c 4
 306 43 325 72 357 114 c 4
 360 119 365 120 369 120 c 4
 377 120 384 114 384 106 c 4
 384 96 367 41 351 0 c 4x60
 349 -5 343 -7 336 -7 c 5xa0
 321 -4 300 0 286 0 c 6
 29 0 l 6
 23 0 12 2 12 13 c 4
 12 18 15 24 20 32 c 4
 192 283 l 4
 220 325 240 356 240 359 c 4
 240 365 239 365 208 365 c 6
 173 365 l 6
 150 365 120 364 108 360 c 4
 62 345 43 286 25 286 c 4
 14 286 11 293 11 299 c 4
 11 306 20 330 34 376 c 4
 39 392 38 409 50 409 c 4
 62 409 73 395 91 393 c 4
 95 393 99 393 103 393 c 4
 168 393 284 394 335 394 c 4
 340 394 350 390 350 384 c 4
 350 371 336 360 315 329 c 4
 141 78 l 4
 126 56 116 42 116 40 c 4x60
EndSplineSet
EndChar

StartChar: A
Encoding: 65 65 27
Width: 725
VWidth: 0
Flags: WO
HStem: 0 25<31 94.692 148.938 260 418 502.544 615.069 689> 240 36<222 419> 630 20G<341.5 358>
DStem2: 116 79 208 240 0.345422 0.938447<-10.5168 182.869 221.489 510.005> 372 641 321 547 0.367428 -0.930052<68.6861 356.738 394.997 601.618>
LayerCount: 3
Fore
SplineSet
321 547 m 1
 222 276 l 1
 419 276 l 1
 321 547 l 1
596 74 m 2
 611 35 616 25 663 25 c 2
 689 25 l 1
 689 0 l 1
 418 0 l 1
 418 25 l 1
 463 25 l 2
 487 25 504 25 504 46 c 0
 504 52 504 60 432 240 c 1
 208 240 l 1
 163 120 147 85 146 52 c 0
 146 26 158 25 226 25 c 2
 260 25 l 1
 260 0 l 1
 31 0 l 1
 31 25 l 1
 60 25 l 2
 88 25 96 29 116 79 c 0
 195 275 285 531 321 625 c 0
 330 649 338 650 345 650 c 2
 355 650 l 2
 361 650 369 649 372 641 c 2
 596 74 l 2
EndSplineSet
Validated: 1
Layer: 2
SplineSet
321 544 m 5
 222 276 l 5
 419 276 l 5
 321 544 l 5
596 74 m 6
 611 35 616 25 663 25 c 6
 689 25 l 5
 689 0 l 5
 418 0 l 5
 418 25 l 5
 463 25 l 6
 487 25 504 25 504 46 c 4
 504 52 504 60 432 240 c 5
 208 240 l 5
 163 120 147 85 146 52 c 4
 146 26 158 25 226 25 c 6
 260 25 l 5
 260 0 l 5
 31 0 l 5
 31 25 l 5
 60 25 l 6
 88 25 96 29 116 79 c 4
 195 275 285 528 321 622 c 4
 330 646 338 647 345 647 c 6
 355 647 l 6
 361 647 369 646 372 638 c 6
 596 74 l 6
EndSplineSet
EndChar

StartChar: B
Encoding: 66 66 28
Width: 566
VWidth: 0
Flags: W
HStem: 0 33<215.271 370.367> 0 25<32 105.712> 332 25<211 318.225> 621 25<35 108.897 215.814 338.315>
VStem: 116 95<34.7707 332 357 618.385> 408 93<428.371 570.898> 435 102<90.014 255.22>
LayerCount: 3
Fore
SplineSet
408 495 m 0x3c
 408 578 350 621 281 621 c 2
 259 621 l 2
 218 621 211 620 211 570 c 2
 211 357 l 1
 249 357 l 2
 322 357 408 393 408 495 c 0x3c
537 172 m 0x7a
 537 20 376 0 263 0 c 2xba
 32 0 l 1
 32 25 l 1
 78 25 l 2
 94 25 116 29 116 85 c 2
 116 566 l 2
 116 613 109 621 65 621 c 2
 35 621 l 1
 35 646 l 1
 268 646 l 2
 374 646 501 643 501 499 c 0x7c
 501 372 342 348 342 348 c 1
 342 348 537 337 537 172 c 0x7a
435 176 m 0
 435 282 351 332 279 332 c 2
 211 332 l 1
 211 85 l 2
 211 40 220 33 247 33 c 2
 301 33 l 2
 394 33 435 96 435 176 c 0
EndSplineSet
Validated: 1
Layer: 2
SplineSet
408 502 m 4x3c
 408 585 350 631 281 631 c 6
 259 631 l 6
 218 631 211 631 211 581 c 6
 211 363 l 5
 249 363 l 6
 322 363 408 400 408 502 c 4x3c
537.079101562 171.749023438 m 4x7a
 537.079101562 19.8828125 376.482917424 0 263 0 c 6xba
 32 0 l 5
 32 25 l 5
 78 25 l 6
 94 25 116 29 116 85 c 6
 116 577 l 6
 116 624 109 632 65 632 c 6
 35 632 l 5
 35 657 l 5
 138 657 l 6
 152 657 198 659 253 659 c 4
 355.946411133 659 423.186523438 657.528320312 472 600 c 4
 493.833007812 574.26953125 501 529 501 506 c 4x7c
 501 379 342 354 342 354 c 5
 342 354 537.079101562 336.346679688 537.079101562 171.749023438 c 4x7a
435 182 m 4
 435 288 351 338 279 338 c 6
 211 338 l 5
 211 85 l 6
 211 40 220 33 247 33 c 6
 301 33 l 6
 394 33 435 102 435 182 c 4
EndSplineSet
EndChar

StartChar: C
Encoding: 67 67 29
Width: 668
VWidth: 0
Flags: W
HStem: -21 32<299.63 465.365> 637 27<301.475 451.57>
VStem: 20 107<200.731 434.115> 599 18<474.035 503.403>
LayerCount: 3
Fore
SplineSet
127 317 m 0
 127 115 252 11 384 11 c 0
 545 11 600 166 606 168 c 0
 611 170 617 167 617 164 c 2
 617 164 612 95 607 56 c 0
 603 25 602 29 581 25 c 0
 568 23 552 20 544 16 c 0
 480 -11 424 -21 372 -21 c 0
 139 -21 20 152 20 319 c 0
 20 482 141 664 375 664 c 0
 482 664 572 611 574 611 c 0
 576 611 577 613 579 616 c 2
 585 626 l 2
 588 630 592 633 597 633 c 0
 604 633 608 633 609 613 c 0
 614 536 617 496 617 483 c 0
 617 477 617 474 609 474 c 0
 600 474 600 479 599 482 c 0
 575 560 480 637 378 637 c 0
 215 637 127 476 127 317 c 0
EndSplineSet
Validated: 1
EndChar

StartChar: D
Encoding: 68 68 30
Width: 722
VWidth: 0
Flags: W
HStem: 0 25<49 107.499 223.46 357.519> 618 28<42 110.729 214.535 403.543>
VStem: 115 95<34.1113 614.67> 579 110<203.425 449.656>
LayerCount: 3
Fore
SplineSet
150 646 m 2
 184 646 245 646 313 646 c 0
 443 646 689 614 689 338 c 0
 689 8 390 -2 278 -2 c 0
 175 -2 247 0 160 0 c 2
 49 0 l 1
 49 25 l 1
 91 25 l 2
 98 25 115 29 115 85 c 2
 115 567 l 2
 115 614 109 621 64 621 c 2
 42 621 l 1
 42 646 l 1
 150 646 l 2
210 573 m 2
 210 85 l 2
 210 32 220 31 280 31 c 2
 290 31 l 2
 526 31 579 219 579 317 c 0
 579 446 531 520 470 569 c 0
 417 612 354 618 286 618 c 0
 212 618 210 613 210 573 c 2
EndSplineSet
Validated: 1
Layer: 2
SplineSet
150 644 m 6
 184 644 245 649 313 649 c 4
 443 649 689 614 689 338 c 4
 689 8 390 -2 278 -2 c 4
 175 -2 247 0 160 0 c 6
 49 0 l 5
 49 25 l 5
 91 25 l 6
 98 25 115 29 115 85 c 6
 115 565 l 6
 115 612 109 619 64 619 c 6
 42 619 l 5
 42 644 l 5
 150 644 l 6
210 571 m 6
 210 85 l 6
 210 32 220 31 280 31 c 6
 290 31 l 6
 526 31 579 219 579 317 c 4
 579 446 531 520 470 569 c 4
 417 612 354 618 286 618 c 4
 212 618 210 611 210 571 c 6
EndSplineSet
EndChar

StartChar: E
Encoding: 69 69 31
Width: 559
VWidth: 0
Flags: W
HStem: 0 25<22 92.7745 203.397 455.828> 313 21<203.029 336.489> 622 24<25 104.777 204.854 413.482>
VStem: 108 95<30.9549 312.755 334.021 620.29> 373 18<392.833 462.855> 380 18<198.193 247.731> 526 12<128.656 136.764>
LayerCount: 3
Fore
SplineSet
22 25 m 1xf6
 68 25 l 2
 105 25 108 79 108 100 c 2
 108 593 l 2
 108 613 101 621 76 621 c 2
 25 621 l 1
 25 646 l 1
 378 646 l 2
 426 646 463 651 473 651 c 0
 484 651 489 644 489 628 c 0
 489 599 504 538 504 506 c 0
 504 493 502 497 496 497 c 0
 492 497 486 502 484 505 c 0
 469 527 430 622 385 622 c 2
 220 622 l 2
 208 622 203 611 203 597 c 2
 203 343 l 2
 203 335 213 334 228 334 c 2
 278 334 l 2
 294 334 311 335 326 339 c 0
 367 351 367 414 373 457 c 0
 374 465 390.806640625 464.997070312 391 458 c 2xfa
 398 205 l 2
 399 197 381 195 380 203 c 0
 365 281 364 313 300 313 c 2
 239 313 l 2
 222 313 203 313 203 302 c 2
 203 42 l 2
 203 31 208 25 226 25 c 2
 426 25 l 2
 467 25 504 97 526 139 c 0
 530 147 542 148 542 137 c 0
 542 132 541 125 538 112 c 0
 523 43 520 0 507 0 c 2
 22 0 l 1
 22 25 l 1xf6
EndSplineSet
Validated: 524289
Layer: 2
SplineSet
22 25 m 5xf6
 68 25 l 6
 105 25 108 79 108 100 c 6
 108 602 l 6
 108 622 101 630 76 630 c 6
 25 630 l 5
 25 655 l 5
 378 655 l 6
 426 655 463 660 473 660 c 4
 484 660 489 653 489 637 c 4
 489 608 504 547 504 515 c 4
 504 502 502 506 496 506 c 4
 492 506 486 511 484 514 c 4
 469 536 430 631 385 631 c 6
 220 631 l 6
 208 631 203 620 203 606 c 6
 203 347 l 6
 203 339 213 338 228 338 c 6
 278 338 l 6
 294 338 311 339 326 343 c 4
 367 355 367 418 373 461 c 4
 374 469 390.806398199 468.997322227 391 462 c 6xfa
 398 209 l 6
 399 201 381 199 380 207 c 4
 365 285 364 317 300 317 c 6
 239 317 l 6
 222 317 203 317 203 306 c 6
 203 42 l 6
 203 31 208 25 226 25 c 6
 426 25 l 6
 467 25 504 97 526 139 c 4
 530 147 542 148 542 137 c 4
 542 132 541 125 538 112 c 4
 523 43 520 0 507 0 c 6
 22 0 l 5
 22 25 l 5xf6
EndSplineSet
EndChar

StartChar: F
Encoding: 70 70 32
Width: 543
VWidth: 0
Flags: W
HStem: 0 25<22 98.3898 203.397 301> 305 21<203.029 337.694> 622 24<25 104.777 204.854 418.935>
VStem: 108 95<27.7294 304.755 326.021 620.29> 371 20<375.21 447.359> 384 18<205.626 245.958>
LayerCount: 3
Fore
SplineSet
22 25 m 1xf4
 68 25 l 2
 98.896875 25 108 40 108 90 c 2
 108 593 l 2
 108 613 101 621 76 621 c 2
 25 621 l 1
 25 646 l 1
 378 646 l 2
 425.5 646 478.5 651 488 651 c 0
 499 651 502.647460938 643.64453125 506 628 c 0
 512.326171875 598.479492188 531.426757812 535.357421875 531.426757812 521.838867188 c 0
 531.426757812 517.493164062 529.58984375 515.889648438 527.004882812 515.889648438 c 0
 518 515.889648438 515.086914062 521.2265625 512 525 c 0
 494 547 430 622 385 622 c 2
 220 622 l 2
 208 622 203 611 203 597 c 2
 203 335 l 2
 203 327 213 326 228 326 c 2
 278 326 l 2
 294 326 311 327 326 331 c 0
 367 343 365 399 371 442 c 0
 372 450 391 449 391 442 c 0xf8
 392 344 393 311 402 212 c 0
 403 204 385 203 384 211 c 0
 369 289 349.95703125 305 286 305 c 2
 239 305 l 2
 222 305 203 305 203 294 c 2
 203 42 l 2
 203 31 208 25 226 25 c 2
 301 25 l 1
 301 0 l 1
 22 0 l 1
 22 25 l 1xf4
EndSplineSet
Validated: 524289
Layer: 2
SplineSet
22 25 m 5xf4
 68 25 l 6
 98.896875 25 108 40 108 90 c 6
 108 602 l 6
 108 622 101 630 76 630 c 6
 25 630 l 5
 25 655 l 5
 378 655 l 6
 425.5 655 478.5 660 488 660 c 4
 499 660 502.647460938 652.64453125 506 637 c 4
 512.325897935 607.47914297 531.426452146 544.357786693 531.426452146 530.839351839 c 4
 531.426452146 526.493553758 529.589902393 524.88929909 527.005241884 524.88929909 c 4
 518 524.88929909 515.087099478 530.226878416 512 534 c 4
 494 556 430 631 385 631 c 6
 220 631 l 6
 208 631 203 620 203 606 c 6
 203 339 l 6
 203 331 213 330 228 330 c 6
 278 330 l 6
 294 330 311 331 326 335 c 4
 367 347 365 403 371 446 c 4
 372 454 391 453 391 446 c 4xf8
 392 348 393 315 402 216 c 4
 403 208 385 207 384 215 c 4
 369 293 349.95703125 309 286 309 c 6
 239 309 l 6
 222 309 203 309 203 298 c 6
 203 42 l 6
 203 31 208 25 226 25 c 6
 301 25 l 5
 301 0 l 5
 22 0 l 5
 22 25 l 5xf4
EndSplineSet
EndChar

StartChar: G
Encoding: 71 71 33
Width: 752
VWidth: 0
Flags: W
HStem: -22 33<310.901 498.186> 257 25<422 551.363 649.188 734> 636 28<311.033 492.428>
VStem: 26 102<196.343 432.777> 559 85<62.2053 256.75> 638 20<458.126 491.177>
LayerCount: 3
Fore
SplineSet
696 47 m 0xf8
 696 31 673 43 511 -1 c 0
 506 -3 461 -22 392 -22 c 0
 195 -22 26 109 26 314 c 0
 26 481 148 664 389 664 c 0
 517 664 600 607 602 607 c 0
 619 607 625 619 641 619 c 0
 648 619 649 619 650 599 c 0
 652 528 658 480 658 467 c 0
 658 461 658 458 650 458 c 0
 641 458 639 463 638 466 c 0xf4
 615 541 561 636 398 636 c 0
 181 636 128 447 128 314 c 0
 128 125 250 11 409 11 c 0
 432 11 511 15 543 48 c 0
 556 62 559 80 559 99 c 2
 559 187 l 2
 559 221 556 257 535 257 c 2
 422 257 l 1
 422 282 l 1
 734 282 l 1
 734 257 l 1
 657 257 l 2
 648 257 644 218 644 208 c 2
 644 124 l 2
 644 57.06640625 666 61 679 60 c 0
 690.96484375 59.080078125 696 57 696 47 c 0xf8
EndSplineSet
Validated: 524289
EndChar

StartChar: H
Encoding: 72 72 34
Width: 812
VWidth: 0
Flags: W
HStem: 0 25<42 119.478 231.738 335 495 589.283 701.885 768> 311 31<221 599> 621 25<51 115.307 234.135 332 502 585.754 708.446 773>
VStem: 126 95<29.0156 311 342 616.633> 599 95<26.1559 311 342 615.553>
LayerCount: 3
Fore
SplineSet
221 127 m 2
 221 34 222 25 279 25 c 2
 335 25 l 1
 335 0 l 1
 42 0 l 1
 42 25 l 1
 101 25 l 2
 123 25 126 42 126 129 c 2
 126 517 l 2
 126 597 125 621 84 621 c 2
 51 621 l 1
 51 646 l 1
 332 646 l 1
 332 621 l 1
 264 621 l 2
 227 621 221 600 221 509 c 2
 221 342 l 1
 599 342 l 1
 599 527 l 2
 599 599 593 621 552 621 c 2
 502 621 l 1
 502 646 l 1
 773 646 l 1
 773 621 l 1
 748 621 l 2
 710 621 694 620 694 509 c 2
 694 127 l 2
 694 48 696 25 725 25 c 2
 768 25 l 1
 768 0 l 1
 495 0 l 1
 495 25 l 1
 569 25 l 2
 591 25 599 42 599 129 c 2
 599 311 l 1
 221 311 l 1
 221 127 l 2
EndSplineSet
Validated: 1
Layer: 2
SplineSet
221 127 m 6
 221 34 222 25 279 25 c 6
 335 25 l 5
 335 0 l 5
 42 0 l 5
 42 25 l 5
 101 25 l 6
 123 25 126 42 126 129 c 6
 126 520 l 6
 126 600 125 624 84 624 c 6
 51 624 l 5
 51 649 l 5
 332 649 l 5
 332 624 l 5
 264 624 l 6
 227 624 221 603 221 512 c 6
 221 343 l 5
 599 343 l 5
 599 530 l 6
 599 602 593 624 552 624 c 6
 502 624 l 5
 502 649 l 5
 773 649 l 5
 773 624 l 5
 748 624 l 6
 710 624 694 623 694 512 c 6
 694 127 l 6
 694 48 696 25 725 25 c 6
 768 25 l 5
 768 0 l 5
 495 0 l 5
 495 25 l 5
 569 25 l 6
 591 25 599 42 599 129 c 6
 599 312 l 5
 221 312 l 5
 221 127 l 6
EndSplineSet
EndChar

StartChar: I
Encoding: 73 73 35
Width: 316
VWidth: 0
Flags: W
HStem: 0 25<39 98.478 213.704 282> 621 25<30 94.3066 216.553 276>
VStem: 105 95<30.8816 613.817>
LayerCount: 3
Fore
SplineSet
200 509 m 2
 200 127 l 2
 200 34 206 25 263 25 c 2
 282 25 l 1
 282 0 l 1
 39 0 l 1
 39 25 l 1
 80 25 l 2
 102 25 105 42 105 129 c 2
 105 517 l 2
 105 597 104 621 63 621 c 2
 30 621 l 1
 30 646 l 1
 276 646 l 1
 276 621 l 1
 248 621 l 2
 211 621 200 600 200 509 c 2
EndSplineSet
Validated: 1
Layer: 2
SplineSet
200 512 m 2
 200 127 l 2
 200 34 206 25 263 25 c 2
 282 25 l 1
 282 0 l 1
 39 0 l 1
 39 25 l 1
 80 25 l 2
 102 25 105 42 105 129 c 2
 105 520 l 2
 105 600 104 624 63 624 c 2
 30 624 l 1
 30 649 l 1
 276 649 l 1
 276 624 l 1
 248 624 l 2
 211 624 200 603 200 512 c 2
EndSplineSet
EndChar

StartChar: J
Encoding: 74 74 36
Width: 316
VWidth: 0
Flags: W
HStem: -210 76<-37 89> 621 25<35 100.256 218.4 281>
VStem: 113 95<-36.1316 616.297>
LayerCount: 3
Fore
SplineSet
113 129 m 2
 113 517 l 2
 113 597 109 621 68 621 c 2
 35 621 l 1
 35 646 l 1
 281 646 l 1
 281 621 l 1
 247 621 l 2
 210 621 208 600 208 509 c 2
 208 127 l 2
 208 39 208 -83 83 -169 c 0
 44 -196 3 -210 -16 -210 c 0
 -58 -210 -84 -174 -84 -142 c 0
 -84 -112 -67 -85 -29 -85 c 0
 26 -85 38 -134 76 -134 c 0
 102 -134 113 -81 113 129 c 2
EndSplineSet
Validated: 1
EndChar

StartChar: K
Encoding: 75 75 37
Width: 708
VWidth: 0
Flags: W
HStem: 0 25<19 95.7272 214.925 288 390 463.486 625.536 694> 309 21<203 254.596> 621 25<22 95.2559 217.502 303 410 482.016 563.593 644>
VStem: 108 95<29.9255 309 330 615.637>
LayerCount: 3
Fore
SplineSet
203 309 m 1
 203 127 l 2
 203 34 206 25 263 25 c 2
 288 25 l 1
 288 0 l 1
 19 0 l 1
 19 25 l 1
 74 25 l 2
 96 25 108 42 108 129 c 2
 108 517 l 2
 108 597 104 621 63 621 c 2
 22 621 l 1
 22 646 l 1
 303 646 l 1
 303 621 l 1
 248 621 l 2
 211 621 203 600 203 509 c 2
 203 330 l 1
 234 330 l 2
 241 330 252 335 290 372 c 0
 326 407 307 388 461 553 c 0
 467 560 485 581 485 598 c 0
 485 611 475 621 442 621 c 2
 410 621 l 1
 410 646 l 1
 644 646 l 1
 644 621 l 1
 618 621 l 2
 569 621 539 597 516 573 c 0
 413 465 329 378 329 374 c 0
 329 366 471 202 586 72 c 0
 600 57 632 25 655 25 c 2
 694 25 l 1
 694 0 l 1
 390 0 l 1
 390 25 l 1
 438 25 l 2
 460 25 464 32 464 43 c 0
 464 54 456 69 446 82 c 0
 374 173 348 203 266 300 c 0
 260.958007812 305.96484375 254 309 234 309 c 2
 203 309 l 1
EndSplineSet
Validated: 524289
Layer: 2
SplineSet
203 310 m 5
 203 127 l 6
 203 34 206 25 263 25 c 6
 288 25 l 5
 288 0 l 5
 19 0 l 5
 19 25 l 5
 74 25 l 6
 96 25 108 42 108 129 c 6
 108 520 l 6
 108 600 104 624 63 624 c 6
 22 624 l 5
 22 649 l 5
 303 649 l 5
 303 624 l 5
 248 624 l 6
 211 624 203 603 203 512 c 6
 203 331 l 5
 234 331 l 6
 241 331 252 336 290 373 c 4
 326 408 307 391 461 556 c 4
 467 563 485 584 485 601 c 4
 485 614 475 624 442 624 c 6
 410 624 l 5
 410 649 l 5
 644 649 l 5
 644 624 l 5
 618 624 l 6
 569 624 539 600 516 576 c 4
 413 468 329 379 329 375 c 4
 329 367 471 202 586 72 c 4
 600 57 632 25 655 25 c 6
 694 25 l 5
 694 0 l 5
 390 0 l 5
 390 25 l 5
 438 25 l 6
 460 25 464 32 464 43 c 4
 464 54 456 69 446 82 c 4
 374 173 348 204 266 301 c 4
 260.957786824 306.964569245 254 310 234 310 c 6
 203 310 l 5
EndSplineSet
EndChar

StartChar: L
Encoding: 76 76 38
Width: 590
VWidth: 0
Flags: W
HStem: 0 34<201.528 480.827> 0 25<22 96.287> 621 25<25 99.1191 207.942 274>
VStem: 106 95<34.6107 618.906>
LayerCount: 3
Fore
SplineSet
230 620 m 2x70
 218 620 201 610 201 587 c 2
 201 56 l 2
 201 45 208 34 226 34 c 2
 436 34 l 2xb0
 477 34 487 45 554 168 c 0
 558 176 573 172 573 162 c 0
 573 160 572 138 560 80 c 0
 548 25 546 0 530 0 c 2
 22 0 l 1
 22 25 l 1
 68 25 l 2
 98.896875 25 106 43 106 102 c 2
 106 583 l 2
 106 603 98 621 71 621 c 2
 25 621 l 1
 25 646 l 9
 274 646 l 25
 274 621 l 25
 230 620 l 2x70
EndSplineSet
Validated: 524289
Layer: 2
SplineSet
230 629 m 6x70
 218 629 201 619 201 596 c 6
 201 56 l 6
 201 45 208 34 226 34 c 6
 436 34 l 6xb0
 477 34 487 45 554 168 c 4
 558 176 573 172 573 162 c 4
 573 160 572 138 560 80 c 4
 548 25 546 0 530 0 c 6
 22 0 l 5
 22 25 l 5
 68 25 l 6
 98.896875 25 106 43 106 102 c 6
 106 602 l 6
 106 622 101 630 76 630 c 6
 25 630 l 5
 25 655 l 13
 274 655 l 29
 274 630 l 29
 230 629 l 6x70
EndSplineSet
EndChar

StartChar: N
Encoding: 78 78 39
Width: 810
VWidth: 0
Flags: W
HStem: 0 25<55 130.19 200.827 286> 621 25<38 101.542 538 618.672 706.462 774>
VStem: 151 33<40.9791 308.716> 652 25<250.249 577.119>
LayerCount: 3
Fore
SplineSet
667 0 m 2
 662 0 l 2
 661 0 656 0 654 2 c 0
 649 7 637 19 616 43 c 0
 437 245 197 507 194 507 c 0
 192 507 184 283 184 153 c 0
 184 124 185 101 185 86 c 0
 187 30 213 25 245 25 c 2
 286 25 l 1
 286 0 l 1
 55 0 l 1
 55 25 l 1
 74 25 l 2
 137 25 147 39 151 110 c 0
 157 235 160 352 160 435 c 2
 160 532 l 2
 160 536 157 551 146 564 c 0
 117 597 105 621 52 621 c 2
 38 621 l 1
 38 646 l 1
 203 645 l 2
 220 645 224 639 243 617 c 0
 508 310 646 163 649 163 c 0
 651 163 652 195 652 441 c 0
 652 553 650 621 575 621 c 2
 538 621 l 1
 538 646 l 1
 774 646 l 1
 774 621 l 1
 754 621 l 2
 679 621 677 583 677 408 c 2
 677 364 l 2
 677 206 673 153 673 100 c 2
 673 26 l 2
 673 0 668 0 667 0 c 2
EndSplineSet
Validated: 1
Layer: 2
SplineSet
667 0 m 2
 662 0 l 2
 661 0 656 0 654 2 c 0
 649 7 637 19 616 43 c 0
 437 245 196 516 193 516 c 0
 191 516 183 283 183 153 c 0
 183 124 184 101 184 86 c 0
 186 30 212 25 244 25 c 2
 285 25 l 1
 285 0 l 1
 54 0 l 1
 54 25 l 1
 73 25 l 2
 136 25 146 39 150 110 c 0
 156 235 159 361 159 444 c 2
 159 541 l 2
 159 545 156 560 145 573 c 0
 116 606 104 630 51 630 c 2
 37 630 l 1
 37 655 l 1
 202 654 l 2
 219 654 223 648 242 626 c 0
 507 319 646 163 649 163 c 0
 651 163 652 204 652 450 c 0
 652 562 650 630 575 630 c 2
 538 630 l 1
 538 655 l 1
 774 655 l 1
 774 630 l 1
 754 630 l 2
 679 630 677 592 677 417 c 2
 677 364 l 2
 677 206 673 153 673 100 c 2
 673 26 l 2
 673 0 668 0 667 0 c 2
EndSplineSet
EndChar

StartChar: O
Encoding: 79 79 40
Width: 746
VWidth: 0
Flags: W
HStem: -22 33<310.968 470.399> 633 32<297.944 463.138>
VStem: 42 111<201.94 454.773> 613 98<189.92 460.522>
LayerCount: 3
Fore
SplineSet
378 633 m 0
 221 633 153 483 153 331 c 0
 153 173 229 11 390 11 c 0
 480 11 613 62 613 327 c 0
 613 510 530 633 378 633 c 0
375 665 m 0
 553 665 711 562 711 326 c 0
 711 91 549 -22 385 -22 c 0
 215 -22 42 99 42 331 c 0
 42 499 153 665 375 665 c 0
EndSplineSet
Validated: 1
EndChar

StartChar: P
Encoding: 80 80 41
Width: 555
VWidth: 0
Flags: W
HStem: 0 25<20 102.018 216.711 328> 268 40<224.736 353.954> 621 25<27 105.715 214.381 343.394>
VStem: 113 95<29.3585 294 313 617.8> 434 92<380.663 546.362>
LayerCount: 3
Fore
SplineSet
434 470 m 0
 434 507 411 621 281 621 c 2
 274 621 l 2
 219 621 208 620 208 572 c 2
 208 313 l 1
 208 313 240 308 263 308 c 0
 363 308 434 361 434 470 c 0
113 85 m 2
 113 568 l 2
 113 615 106 621 53 621 c 2
 27 621 l 1
 27 646 l 1
 122.333333333 646 217.666666667 646 313 646 c 0
 365 646 526 620 526 458 c 0
 526 345 442 268 334 268 c 0
 272 268 208 294 208 294 c 1
 208 85 l 2
 208 40 216 25 249 25 c 2
 328 25 l 1
 328 0 l 1
 20 0 l 1
 20 25 l 1
 59 25 l 2
 93 25 113 29 113 85 c 2
EndSplineSet
Validated: 524289
Layer: 2
SplineSet
434 481 m 4
 434 518 411 635 281 635 c 4
 220 635 208 631 208 581 c 6
 208 319 l 5
 208 319 240 314 263 314 c 4
 363 314 434 372 434 481 c 4
113 85 m 6
 113 577 l 6
 113 624 106 630 53 630 c 6
 27 630 l 5
 27 655 l 5
 109 655 l 6
 140 655 222 660 313 660 c 4
 365 660 526 631 526 469 c 4
 526 356 442 274 334 274 c 4
 272 274 208 300 208 300 c 5
 208 85 l 6
 208 40 216 25 249 25 c 6
 328 25 l 5
 328 0 l 5
 20 0 l 5
 20 25 l 5
 59 25 l 6
 93 25 113 29 113 85 c 6
EndSplineSet
EndChar

StartChar: Q
Encoding: 81 81 42
Width: 735
VWidth: 0
Flags: W
HStem: -196 55<661.789 768.082> -175 34<735.702 789.994> -18 26<277.22 355.996> 636 28<292.745 432.006>
VStem: 17 106<187.691 414.905> 600 106<231.943 461.106>
LayerCount: 3
Fore
SplineSet
774 -141 m 0x7c
 784 -141 790 -147 790 -158 c 0
 790 -166 782 -170 765 -175 c 0x7c
 732 -185 676 -196 658 -196 c 0xbc
 600 -196 567 -171 514 -142 c 24
 448 -106 420 -80 356 -30 c 0
 342 -19 330 -20 312 -18 c 0
 193 -6 17 86 17 308 c 0
 17 480 148 664 372 664 c 0
 555 664 706 540 706 342 c 0
 706 145 525 37 484 14 c 0
 480 12 474 8 474 6 c 0
 474 2 481 -4 484 -6 c 0
 521 -33 674 -146 735 -146 c 0
 750 -146 764 -141 774 -141 c 0x7c
123 269 m 0
 123 95 230 8 356 8 c 0
 518 8 600 167 600 342 c 0
 600 485 526 605 406 631 c 0
 390 634 375 636 361 636 c 0
 184 636 123 394 123 269 c 0
EndSplineSet
Validated: 1
EndChar

StartChar: R
Encoding: 82 82 43
Width: 660
VWidth: 0
Flags: W
HStem: 0 25<38 106.019 217.506 317 585.913 645> 298 25<207 294.119> 618.225 27.7752<35 108.362 210.234 342.886>
VStem: 112 95<28.4562 298 323 617.71> 416 95<407.806 560.962>
DStem2: 397 301 319 252 0.574823 -0.818278<-27.1601 316.89>
LayerCount: 3
Fore
SplineSet
416 491 m 0
 416 574 350 618 281 618 c 2
 259 618 l 2
 251.064516129 618 244.252861602 618.224765869 238.427276694 618.224765869 c 0
 214.154006243 618.224765869 207 614.322580645 207 574 c 2
 207 323 l 1
 249 323 l 2
 329 323 416 356 416 491 c 0
317 0 m 1
 38 0 l 1
 38 25 l 1
 83 25 l 2
 101 25 112 29 112 85 c 2
 112 566 l 2
 112 613 109 621 65 621 c 2
 35 621 l 1
 35 646 l 1
 150 646 l 2
 164 646 198 646 253 646 c 0
 294 646 339 643 381 633 c 0
 454 615 511 565 511 484 c 0
 511 394 441 354 402 337 c 0
 390 332 385 327.4140625 385 326 c 0
 385 321 389 314 397 301 c 0
 433 247 512 127 577 47 c 0
 583 39 596 25 622 25 c 2
 645 25 l 1
 645 0 l 1
 570 0 l 2
 524 0 495 1 489 10 c 2
 395 144 l 2
 373 177 344 212 319 252 c 0
 294 291 294 298 250 298 c 2
 207 298 l 1
 207 85 l 2
 207 40 220 25 247 25 c 2
 317 25 l 1
 317 0 l 1
EndSplineSet
Validated: 524289
Layer: 2
SplineSet
416 501 m 4
 416 584 350 631 281 631 c 6
 259 631 l 6
 218 631 207 631 207 581 c 6
 207 328 l 5
 249 328 l 6
 329 328 416 366 416 501 c 4
317 0 m 5
 38 0 l 5
 38 25 l 5
 83 25 l 6
 101 25 112 29 112 85 c 6
 112 577 l 6
 112 624 109 632 65 632 c 6
 35 632 l 5
 35 657 l 5
 138 657 l 6
 152 657 198 659 253 659 c 4
 294 659 339 656 381 646 c 4
 454 628 511 575 511 494 c 4
 511 404 441 359 402 342 c 4
 390 337 385 332.414213562 385 331 c 4
 385 326 389 319 397 306 c 4
 433 252 515 127 580 47 c 4
 586 39 599 25 625 25 c 6
 648 25 l 5
 648 0 l 5
 573 -0 l 6
 527 0 498 1 492 10 c 6
 398 144 l 6
 376 177 344 219 319 259 c 4
 294 298 294 303 250 303 c 6
 207 303 l 5
 207 85 l 6
 207 40 220 25 247 25 c 6
 317 25 l 5
 317 0 l 5
EndSplineSet
EndChar

StartChar: S
Encoding: 83 83 44
Width: 458
VWidth: 0
Flags: W
HStem: -17 30<159.203 283.865> 480 148<355.5 414> 633 28<165.86 288.594>
VStem: 19 26<147.301 179.77> 24 76<466.5 568.485> 362 78<95.5705 212.375>
LayerCount: 3
Fore
SplineSet
218 -17 m 0xec
 167 -17 146 -13 110 -6 c 0
 41 7 32 14 32 16 c 0
 32 17 33 17 33 17 c 1
 33 41 19 152 19 171 c 0
 19 180 25 181 31 182 c 0
 39 184 43 179 45 174 c 0xf4
 83 92 132 13 218 13 c 0
 318 13 362 93 362 149 c 0
 362 323 24 286 24 483 c 0
 24 592 107 661 230 661 c 0
 308 661 349 628 362 628 c 0
 369 628 392 634 395 634 c 0
 400 634 403 631 404 620 c 0
 406 591 417 522 420 493 c 0
 421 486 417 480 411 480 c 0
 407 480 401 482 395 494 c 0
 373 534 331 633 228 633 c 0
 180 633 100 607 100 519 c 0
 100 375 440 413 440 183 c 0
 440 50 309 -17 218 -17 c 0xec
EndSplineSet
Validated: 1
EndChar

StartChar: T
Encoding: 84 84 45
Width: 700
VWidth: 0
Flags: W
HStem: 0 25<200 288.592 408.952 502> 610 34<82.2109 295.573 402.87 622.61>
VStem: 302 95<30.5176 608.062>
LayerCount: 3
Fore
SplineSet
48 664 m 0
 54 664 76 644 90 644 c 2
 613 644 l 2
 621 644 648 660 652 660 c 0
 657 660 659 657 662 647 c 2
 673 605 l 2
 679 581 693 537 693 534 c 0
 693 531 686 528 682 528 c 0
 678 528 651 563 623 593 c 0
 609 608 599 610 578 610 c 2
 437 610 l 2
 398 610 397 595 397 515 c 2
 397 122 l 2
 397 28 407 25 456 25 c 2
 502 25 l 1
 502 0 l 1
 200 0 l 1
 200 25 l 1
 250 25 l 2
 292 25 302 38 302 120 c 2
 302 513 l 2
 302 607 296 610 260 610 c 2
 162 610 l 2
 95 610 99 608 74 586 c 0
 31 548 15 532 12 532 c 0
 10 532 1 535 1 540 c 0
 1 543 36 635 42 659 c 0
 43 662 45 664 48 664 c 0
EndSplineSet
Validated: 524289
Layer: 2
SplineSet
48 667 m 4
 54 667 76 647 90 647 c 6
 613 647 l 6
 621 647 648 663 652 663 c 4
 657 663 659 660 662 650 c 6
 673 608 l 6
 679 584 693 540 693 537 c 4
 693 534 686 531 682 531 c 4
 678 531 651 566 623 596 c 4
 609 611 599 613 578 613 c 6
 437 613 l 6
 398 613 397 598 397 518 c 6
 397 122 l 6
 397 28 407 25 456 25 c 6
 502 25 l 5
 502 0 l 5
 200 0 l 5
 200 25 l 5
 260 25 l 6
 294 25 302 38 302 120 c 6
 302 516 l 6
 302 610 296 613 260 613 c 6
 162 613 l 6
 95 613 99 611 74 589 c 4
 31 551 15 535 12 535 c 4
 10 535 1 538 1 543 c 4
 1 546 36 638 42 662 c 4
 43 665 45 667 48 667 c 4
EndSplineSet
EndChar

StartChar: U
Encoding: 85 85 46
Width: 750
VWidth: 0
Flags: W
HStem: -20 56<302.711 487.019> 621 25<25 94.9395 215.964 306 483 568.516 648.25 712>
VStem: 107 95<174.747 615.325> 592 24<165.542 283.125> 601 29<214.766 583.963>
LayerCount: 3
Fore
SplineSet
107 517 m 2xf0
 107 595 104 621 63 621 c 2
 25 621 l 1
 25 646 l 1
 306 646 l 1
 306 621 l 1
 248 621 l 2
 214 621 202 603 202 532 c 2
 202 434 l 2
 202 214 208 261 213 201 c 0
 222 105 291 36 386 36 c 0
 487 36 565 75 592 205 c 0xf0
 601 247 601 300 601 363 c 2
 601 441 l 2
 601 553 600 621 525 621 c 2
 483 621 l 1
 483 646 l 1
 712 646 l 1
 712 621 l 1
 691 621 l 2
 635 621 630 593 630 512 c 2
 630 408 l 2xe8
 630 316 629 242 616 183 c 0
 582 31 498 -20 368 -20 c 0
 116 -20 107 181 107 392 c 2
 107 517 l 2xf0
EndSplineSet
Validated: 1
EndChar

StartChar: V
Encoding: 86 86 47
Width: 772
VWidth: 0
Flags: W
HStem: -20 21G<337.5 352> 621 25<36 90.3686 227.166 276 501 573.334 682.44 747>
LayerCount: 3
Fore
SplineSet
591 561 m 0
 591 611 568 621 509 621 c 2
 501 621 l 1
 501 646 l 1
 747 646 l 1
 747 621 l 1
 722 621 l 2
 694 621 664 604 643 565 c 0
 550.43359375 385.15625 637.379882812 481.452148438 378 24 c 0
 364 -2 356 -20 348 -20 c 2
 342 -20 l 2
 333 -20 327 -6 321 10 c 2
 175 412 l 2
 116 576 107 621 54 621 c 2
 36 621 l 1
 36 646 l 1
 276 646 l 1
 276 621 l 1
 262 621 l 2
 231 621 223 608 223 595 c 0
 223 590 225 585 226 581 c 2
 226 581 384 116 392 116 c 0
 403.064453125 116 591 476.668945312 591 561 c 0
EndSplineSet
Validated: 524289
Layer: 2
SplineSet
592 564 m 4
 592 614 569 624 510 624 c 6
 502 624 l 5
 502 649 l 5
 748 649 l 5
 748 624 l 5
 723 624 l 6
 695 624 665 607 644 568 c 4
 551.43359375 388.15625 637.379882812 481.452148438 378 24 c 4
 364 -2 356 -20 348 -20 c 6
 342 -20 l 6
 333 -20 327 -6 321 10 c 6
 172 421 l 6
 113 585 106 624 53 624 c 6
 35 624 l 5
 35 649 l 5
 275 649 l 5
 275 624 l 5
 261 624 l 6
 230 624 222 611 222 598 c 4
 222 593 224 588 225 584 c 6
 225 584 384 116 392 116 c 4
 403.064453125 116 592 479.668945312 592 564 c 4
EndSplineSet
EndChar

StartChar: W
Encoding: 87 87 48
Width: 1069
VWidth: 0
Flags: W
HStem: -20 21G<287.5 302 697.5 712> 621 25<24 92.8722 220.33 286 414 484.691 623.989 701 850 913.321 993.106 1045>
LayerCount: 3
Fore
SplineSet
213 595 m 0
 213 586 335 116 342 116 c 0
 351 116 465 343 534 477 c 1
 502 583 504 621 443 621 c 2
 414 621 l 1
 414 646 l 1
 701 646 l 1
 701 621 l 1
 673 621 l 2
 623.890625 621 611.809570312 602.770507812 611.809570312 579.100585938 c 0
 611.809570312 572.40625 613.015625 565.276367188 615 558 c 0
 642 464 740 116 747 116 c 0
 752 116 884 442 924 551 c 0
 927.579101562 560.896484375 929.340820312 569.728515625 929.340820312 577.505859375 c 0
 929.340820312 606.666015625 904.577148438 621 858 621 c 2
 850 621 l 1
 850 646 l 1
 1045 646 l 1
 1045 621 l 1
 1031 621 l 2
 1003 621 978 606 962 565 c 0
 880 355 798 162 736 24 c 0
 724 -3 716 -20 708 -20 c 2
 702 -20 l 2
 693 -20 686 -6 681 10 c 2
 543 438 l 1
 510 378 496 320 328 24 c 0
 314 -2 306 -20 298 -20 c 2
 292 -20 l 2
 283 -20 275 -6 271 10 c 2
 156 418 l 2
 109 586 113 621 54 621 c 2
 24 621 l 1
 24 646 l 1
 286 646 l 1
 286 621 l 1
 262 621 l 2
 231 621 213 608 213 595 c 0
EndSplineSet
Validated: 524289
Layer: 2
SplineSet
212 598 m 4
 212 589 335 116 342 116 c 4
 351 116 465 341 534 475 c 5
 502 581 504 624 443 624 c 6
 414 624 l 5
 414 649 l 5
 701 649 l 5
 701 624 l 5
 673 624 l 6
 623.890625 624 608.809570312 605.770507812 608.809570312 582.100585938 c 4
 608.809570312 575.40625 610.015625 568.276367188 612 561 c 4
 639 467 740 116 747 116 c 4
 752 116 886 445 926 554 c 4
 929.579101562 563.896484375 931.340820312 572.728515625 931.340820312 580.505859375 c 4
 931.340820312 609.666015625 906.577148438 624 860 624 c 6
 852 624 l 5
 852 649 l 5
 1047 649 l 5
 1047 624 l 5
 1033 624 l 6
 1005 624 980 609 964 568 c 4
 882 358 798 162 736 24 c 4
 724 -3 716 -20 708 -20 c 6
 702 -20 l 6
 693 -20 686 -6 681 10 c 6
 543 436 l 5
 510 376 496 320 328 24 c 4
 314 -2 306 -20 298 -20 c 6
 292 -20 l 6
 283 -20 276 -6 271 10 c 6
 155 421 l 6
 108 589 112 624 53 624 c 6
 23 624 l 5
 23 649 l 5
 285 649 l 5
 285 624 l 5
 261 624 l 6
 230 624 212 611 212 598 c 4
EndSplineSet
EndChar

StartChar: X
Encoding: 88 88 49
Width: 694
VWidth: 0
Flags: W
HStem: 0 25<22 87.025 187.596 264 394 442.252 584.129 647> 621 25<32 97.4577 247.822 309 414 474.184 586.657 659>
VStem: 292 91<304 363>
DStem2: 334 434 153 545 0.512834 -0.858488<-188.792 45.7567 86.4485 89.7028 131.822 390.742> 190 160 205 128 0.602092 0.798427<-79.7275 160.193 293.451 510.596>
LayerCount: 3
Fore
SplineSet
309 621 m 1
 286 621 l 2
 261 621 247 619 247 603 c 0
 247 581 274 538 334 434 c 2
 356 396 l 2
 361 387 368 395 377 407 c 2
 420 465 l 2
 434 485 487 544 487 579 c 0
 487 613 458 621 423 621 c 2
 414 621 l 1
 414 646 l 1
 659 646 l 1
 659 621 l 1
 632 621 l 2
 571 621 539 562 502 516 c 2
 405 398 l 2
 391 380 383 373 383 363 c 0
 383 354 389 341 406 314 c 2
 537 101 l 2
 565 56 583 25 617 25 c 2
 647 25 l 1
 647 0 l 1
 394 0 l 1
 394 25 l 1
 409 25 l 2
 433 25 443 30 443 43 c 0
 443 63 419 102 380 165 c 2
 332 242 l 2
 324 255 316 268 313 268 c 0
 310 268 301 255 291 242 c 2
 205 128 l 2
 185 102 176 79 176 62 c 0
 176 37 198 25 240 25 c 2
 264 25 l 1
 264 0 l 1
 22 0 l 1
 22 25 l 1
 43 25 l 2
 89 25 92 35 190 160 c 2
 259 249 l 1
 284 279 292 294 292 304 c 0
 292 313 285 317 280 326 c 2
 153 545 l 2
 120 601 91 621 54 621 c 2
 32 621 l 1
 32 646 l 1
 309 646 l 1
 309 621 l 1
EndSplineSet
Validated: 1
Layer: 2
SplineSet
309 630 m 5
 286 630 l 6
 260.94479436 630 247.22295157 627.562191066 247.22295157 611.787270804 c 4
 247.22295157 589.758747825 273.980655931 541.722749944 334 438 c 6
 356 400 l 6
 361.43153527 390.618257261 368 399 377 411 c 6
 420 469 l 6
 434 489 487 553 487 588 c 4
 487 622 458 630 423 630 c 6
 414 630 l 5
 414 655 l 5
 659 655 l 5
 659 630 l 5
 632 630 l 6
 571 630 539 571 502 525 c 6
 405 402 l 6
 391.262668009 384.035796627 382.55027274 377.796445606 382.55027274 367.352126016 c 4
 382.55027274 358.028974782 389.492562296 345.355182481 406 318 c 6
 537 101 l 6
 564 56 583 25 617 25 c 6
 647 25 l 5
 647 0 l 5
 394 0 l 5
 394 25 l 5
 409 25 l 6
 432.579575821 25 442.694868769 30.3995288419 442.694868769 43.0573752321 c 4
 442.694868769 63.0833735758 417.375832278 101.277269559 380 165 c 6
 332 246 l 6
 324 259 316 272 313 272 c 4
 310 272 301 259 291 246 c 6
 205 128 l 6
 185.915236098 100.736051569 176.3556636 78.7508262961 176.3556636 62.2046989303 c 4
 176.3556636 37.5778261783 197.532655857 25 240 25 c 6
 264 25 l 5
 264 0 l 5
 22 0 l 5
 22 25 l 5
 43 25 l 6
 89 25 92 35 190 160 c 4
 216 192 233.636354385 222.460100178 259 253 c 4
 284.182129145 283.321339175 291.73227425 297.966794526 291.73227425 307.531449713 c 4
 291.73227425 316.57793346 284.978037541 321.079216219 280 330 c 6
 153 554 l 6
 121 612 91 630 54 630 c 6
 32 630 l 5
 32 655 l 5
 309 655 l 5
 309 630 l 5
EndSplineSet
EndChar

StartChar: Y
Encoding: 89 89 50
Width: 666
VWidth: 0
Flags: W
HStem: 0 25<203 279.839 395.111 485> 621 25<17 70.6831 208.898 289 412 492.447 572.169 640>
VStem: 287 95<30.5566 279.453>
DStem2: 384 327 405 312 0.454326 0.890835<-21.8309 283.328>
LayerCount: 3
Fore
SplineSet
287 232 m 2
 287 241 279 257 274 266 c 2
 102 553 l 2
 71 605 76 621 39 621 c 2
 17 621 l 1
 17 646 l 1
 289 646 l 1
 289 621 l 1
 266 621 l 2
 241 621 207 619 207 603 c 0
 207 581 298 431 356 325 c 0
 362 313 367 309 371 309 c 0
 376 309 379 316 384 327 c 2
 486 527 l 2
 498 551 505 570 505 584 c 0
 505 610 481 621 423 621 c 2
 412 621 l 1
 412 646 l 1
 640 646 l 1
 640 621 l 1
 613 621 l 2
 552 621 532 555 505 503 c 2
 405 312 l 2
 395 292 382 276 382 266 c 2
 382 127 l 2
 382 34 387 25 444 25 c 2
 485 25 l 1
 485 0 l 1
 203 0 l 1
 203 25 l 1
 261 25 l 2
 283 25 287 42 287 129 c 2
 287 232 l 2
EndSplineSet
Validated: 1
Layer: 2
SplineSet
287 236 m 6
 287 245 279 261 274 270 c 6
 102 562 l 6
 71 614 76 630 39 630 c 6
 17 630 l 5
 17 655 l 5
 289 655 l 5
 289 630 l 5
 266 630 l 6
 241 630 207 628 207 612 c 4
 207 590 298 435 356 329 c 4
 362 317 367 313 371 313 c 4
 376 313 379 320 384 331 c 6
 486 536 l 6
 498 560 505 579 505 593 c 4
 505 619 481 630 423 630 c 6
 412 630 l 5
 412 655 l 5
 640 655 l 5
 640 630 l 5
 613 630 l 6
 552 630 532 564 505 512 c 6
 405 315 l 6
 395 295 382 280 382 270 c 6
 382 127 l 6
 382 34 387 25 444 25 c 6
 485 25 l 5
 485 0 l 5
 203 0 l 5
 203 25 l 5
 261 25 l 6
 283 25 287 42 287 129 c 6
 287 236 l 6
EndSplineSet
EndChar

StartChar: Z
Encoding: 90 90 51
Width: 579
VWidth: 0
Flags: W
HStem: 0 35<185.152 408.343> 619 27<171.125 384.995>
VStem: 35 52<478.725 561.591>
LayerCount: 3
Fore
SplineSet
473 4 m 0
 470 0 466 0 462 0 c 2
 71 0 l 2
 46 0 35 8 35 19 c 0
 35 34 385 602 385 614 c 0
 385 619 378 619 362 619 c 2
 280 619 l 2
 198 619 136 614 87 531 c 0
 68 499 70 473 57 473 c 0
 39 473 35 484 35 494 c 0
 35 505 46 548 68 622 c 0
 76 648 74 670 93 670 c 0
 112 670 124 646 156 646 c 2
 495 646 l 2
 503 646 509 640 509 630 c 0
 509 619 490 595 460 542 c 2
 237 146 l 2
 233 140 185 64 185 54 c 0
 185 38 208 35 253 35 c 2
 286 35 l 2
 332 35 371 39 392 45 c 0
 416 53 453 78 516 146 c 0
 521 151 530 157 537 157 c 0
 543 157 545 154 545 150 c 0
 545 145 497 32 473 4 c 0
EndSplineSet
Validated: 1
Layer: 2
SplineSet
476 4 m 0
 473 0 469 0 465 -0 c 2
 68 0 l 2
 43 0 32 8 32 19 c 0
 32 34.3056640625 388 610.962225437 388 623 c 0
 388 628 381 628 365 628 c 2
 277 628 l 2
 195 628 133 623 84 540 c 0
 65 508 67 482 54 482 c 0
 36 482 32 493 32 503 c 0
 32 514 43 557 65 631 c 0
 73 657 71 679 90 679 c 0
 109 679 121 655 153 655 c 2
 498 655 l 2
 506 655 512 649 512 639 c 0
 512 628 493 604 463 551 c 2
 234 146 l 2
 230 140 182 64 182 54 c 0
 182 38 205 35 250 35 c 2
 289 35 l 2
 335 35 374 39 395 45 c 0
 419 53 456 78 519 146 c 0
 524 151 533 157 540 157 c 0
 546 157 548 154 548 150 c 0
 548 145.337803277 500.130936742 32.3276213931 476 4 c 0
EndSplineSet
EndChar

StartChar: period
Encoding: 46 46 53
Width: 320
VWidth: 0
Flags: W
HStem: -14 106<112.315 197.685>
VStem: 102 106<-3.68506 81.6851>
LayerCount: 3
Fore
SplineSet
102 39 m 0
 102 69 125 92 155 92 c 0
 185 92 208 69 208 39 c 0
 208 9 185 -14 155 -14 c 0
 125 -14 102 9 102 39 c 0
EndSplineSet
Validated: 1
EndChar

StartChar: comma
Encoding: 44 44 54
Width: 306
VWidth: 0
Flags: W
HStem: -1 99<91.7653 164.309>
VStem: 166 55<-83.2435 38>
LayerCount: 3
Fore
SplineSet
125 -164 m 0
 117 -164 106 -155 106 -145 c 0
 106 -138 115 -134 131 -118 c 0
 156 -92 166 -48 166 -31 c 0
 166 -6 157 -1 147 -1 c 0
 140 -1 134 -3 127 -3 c 0
 99 -3 78 8 78 41 c 0
 78 77 110 98 143 98 c 0
 181 98 221 71 221 5 c 0
 221 -63 183 -118 155 -145 c 0
 143 -157 134 -164 125 -164 c 0
EndSplineSet
Validated: 1
Layer: 2
SplineSet
125 -164 m 4
 117 -164 106 -155 106 -145 c 4
 106 -138 115 -134 131 -118 c 4
 156 -92 166 -48 166 -31 c 4
 166 -8 158 3 158 3 c 5
 158 3 145 -3 127 -3 c 4
 99 -3 78 8 78 41 c 4
 78 77 110 98 143 98 c 4
 181 98 221 71 221 5 c 4
 221 -63 183 -118 155 -145 c 4
 143 -157 134 -164 125 -164 c 4
EndSplineSet
EndChar

StartChar: hyphen
Encoding: 45 45 55
Width: 316
VWidth: 0
Flags: W
HStem: 172 58<23.0007 289>
VStem: 23 266<172 230>
LayerCount: 3
Fore
SplineSet
26 230 m 2
 286 230 l 2
 289 230 289 222 289 213 c 2
 289 185 l 2
 289 177 289 172 286 172 c 2
 26 172 l 2
 23 172 23 182 23 196 c 2
 23 215 l 2
 23 224 23 230 26 230 c 2
EndSplineSet
Validated: 1
EndChar

StartChar: colon
Encoding: 58 58 56
Width: 320
VWidth: 0
Flags: W
HStem: -9 94<125.394 204.606> 261 94<125.394 204.606>
VStem: 118 94<-1.60614 77.6061 268.394 347.606>
LayerCount: 3
Fore
SplineSet
118 308 m 0
 118 334 139 355 165 355 c 0
 191 355 212 334 212 308 c 0
 212 282 191 261 165 261 c 0
 139 261 118 282 118 308 c 0
118 38 m 0
 118 64 139 85 165 85 c 0
 191 85 212 64 212 38 c 0
 212 12 191 -9 165 -9 c 0
 139 -9 118 12 118 38 c 0
EndSplineSet
Validated: 1
EndChar

StartChar: semicolon
Encoding: 59 59 57
Width: 328
VWidth: 0
Flags: W
HStem: 8 93<121.195 195.838> 261 94<124.394 203.606>
VStem: 117 94<268.394 347.606> 197 52<-74.7171 38.5>
LayerCount: 3
Fore
SplineSet
191 -120 m 0xd0
 161 -153 141 -155 138 -155 c 0
 131 -155 127 -150 125 -143 c 0
 123 -136 127 -132 135 -125 c 0
 170 -94 197 -51 197 -23 c 0
 197 -4 186 8 158 8 c 0
 124 8 108 27 108 48 c 0
 108 73 132 101 173 101 c 0
 211 101 249 70 249 7 c 0
 249 -62 214 -95 191 -120 c 0xd0
117 308 m 0xe0
 117 334 138 355 164 355 c 0
 190 355 211 334 211 308 c 0
 211 282 190 261 164 261 c 0
 138 261 117 282 117 308 c 0xe0
EndSplineSet
Validated: 1
EndChar

StartChar: exclam
Encoding: 33 33 58
Width: 324
VWidth: 0
Flags: W
HStem: -11 88<124.44 199.56>
VStem: 118 88<-4.56006 70.5601 370.443 626> 146 23<208.295 314.302>
LayerCount: 3
Fore
SplineSet
139 626 m 2xa0
 191 626 l 2
 206 626 212 617 212 608 c 0
 212 599 209 607 169 214 c 0
 168 206 147 205 146 215 c 0
 130 530 131 483 119 608 c 0
 118 616 126 626 139 626 c 2xa0
118 33 m 0xc0
 118 57 138 77 162 77 c 0
 186 77 206 57 206 33 c 0
 206 9 186 -11 162 -11 c 0
 138 -11 118 9 118 33 c 0xc0
EndSplineSet
Validated: 1
EndChar

StartChar: question
Encoding: 63 63 59
Width: 352
VWidth: 0
Flags: W
HStem: -12 82<82.0781 153.922> 516 71<108.986 233.683>
VStem: 77 82<-6.92188 64.9219> 104 34<150.475 238.306> 277 25<331.057 460.865>
LayerCount: 3
Fore
SplineSet
104 516 m 2xd8
 92 516 84 532 84 578 c 0
 84 611 89 618 97 618 c 0
 104 618 104 614 120 595 c 0
 126 587 128 587 140 587 c 0
 223 587 247 557 258 541 c 0
 286 501 302 472 302 380 c 0
 302 297 280 257 239 251 c 0
 148 238 140 241 138 221 c 0
 136 193 132 156 128 150 c 0
 124 144 116 144 113 150 c 0
 108 159 104 241 104 292 c 0
 104 303 106 310 122 310 c 2
 210 310 l 2
 276 310 277 346 277 416 c 0
 277 465 236 516 155 516 c 2
 104 516 l 2xd8
77 29 m 0xe8
 77 51 96 70 118 70 c 0
 140 70 159 51 159 29 c 0
 159 7 140 -12 118 -12 c 0
 96 -12 77 7 77 29 c 0xe8
EndSplineSet
Validated: 1
EndChar

StartChar: parenleft
Encoding: 40 40 60
Width: 408
VWidth: 0
Flags: W
VStem: 37 82<91.014 347.445>
LayerCount: 3
Fore
SplineSet
305 -210 m 0
 305 -212 291 -226 279 -226 c 0
 275 -226 267 -221 253 -206 c 0
 63 0 37 131 37 215 c 0
 37 426 211 607 274 670 c 0
 280 676 286 679 289 679 c 0
 293 679 310 667 310 659 c 0
 310 652 300 646 277 620 c 0
 179 509 119 365 119 216 c 0
 119 96 169 -60 283 -184 c 0
 297 -199 305 -205 305 -210 c 0
EndSplineSet
Validated: 1
EndChar

StartChar: parenright
Encoding: 41 41 61
Width: 408
VWidth: 0
Flags: W
VStem: 229 78<89.9467 353.291>
LayerCount: 3
Fore
SplineSet
42 -210 m 0
 42 -205 50 -199 64 -184 c 0
 178 -60 229 72 229 216 c 0
 229 377 168 509 70 620 c 0
 47 646 42 650 42 657 c 0
 42 665 57 678 60 678 c 0
 63 678 69 676 75 670 c 0
 138 607 307 442 307 215 c 0
 307 146 296 23 92 -206 c 0
 78.3517913245 -221.320783268 72 -224 69 -224 c 0
 60 -224 42 -212 42 -210 c 0
EndSplineSet
Validated: 1
EndChar

StartChar: bracketleft
Encoding: 91 91 62
Width: 355
VWidth: 0
Flags: W
HStem: -230 39<137.579 260.729> -222 27<114.06 227.335> 620 38<122.859 273.994>
VStem: 44 70<-194.999 25.1812> 55 68<66.5605 626.003>
LayerCount: 3
Fore
SplineSet
55 299 m 0x68
 55 609 51 609 51 643 c 0
 51 653 69 656 98 656 c 0
 144 656 213 657 264 658 c 0
 272 658 274 649 274 641 c 2
 274 633 l 2
 274 621 263 620 255 620 c 0
 220 622 169 626 143 626 c 0
 128 626 123 630 123 614 c 2x68
 114 -179 l 2
 114 -194 119 -195 135 -195 c 0x70
 190 -195 246 -191 248 -191 c 0
 255 -191 261 -193 261 -218 c 0
 261 -223 256 -230 229 -230 c 0xb0
 194 -230 125 -222 78 -222 c 0
 47 -222 44 -217 44 -206 c 0x70
 44 -191 55 8 55 299 c 0x68
EndSplineSet
Validated: 1
EndChar

StartChar: bracketright
Encoding: 93 93 63
Width: 355
VWidth: 0
Flags: W
HStem: -228 37<44.0354 193> 620 41<47.0586 175.467> 625 29<64.3813 194.996>
VStem: 193 66<-194.998 625.001> 195 70<1.37086 625.001>
LayerCount: 3
Fore
SplineSet
258 -17 m 0xa8
 258 -129 259 -197 259 -206 c 0
 259 -217 258 -224 231 -224 c 0
 219 -224 97 -228 62 -228 c 0
 48 -228 44 -220 44 -208 c 0
 44 -194 47 -191 54 -191 c 0
 78 -192 139 -195 175 -195 c 0
 188 -195 193 -193 193 -179 c 2xb0
 195 614 l 2
 195 627 189 625 179 625 c 0xa8
 103 625 67 620 62 620 c 0
 52 620 47 633 47 642 c 0
 47 652 52 661 62 661 c 0xc8
 113 660 151 654 240 654 c 0
 265 654 265 650 265 641 c 0
 265 575 258 378 258 -17 c 0xa8
EndSplineSet
Validated: 1
EndChar

StartChar: quoteleft
Encoding: 8216 8216 64
Width: 278
VWidth: 0
Flags: W
HStem: 409 90<119.091 193.881>
VStem: 68 48<468.354 587.594>
LayerCount: 3
Fore
SplineSet
193 664 m 0
 193 657 186 651 169 635 c 0
 143 610 116 574 116 539 c 0
 116 512 125 502 146 499 c 0
 157 498 201 503 201 455 c 0
 201 433 185 409 146 409 c 0
 115 409 68 436 68 502 c 0
 68 594 149 679 176 679 c 0
 182 679 193 675 193 664 c 0
EndSplineSet
Validated: 1
EndChar

StartChar: quoteright
Encoding: 8217 8217 65
Width: 244
VWidth: 0
Flags: W
HStem: 414 21G<95.5 104.5> 579 98<80.8125 143.291>
VStem: 145 53<512.253 617>
LayerCount: 3
Fore
SplineSet
123 579 m 0
 103 579 69 581 69 622 c 0
 69 646 87 677 128 677 c 0
 165 677 198 641 198 593 c 0
 198 541 163 480 134 444 c 0
 119 426 109 414 100 414 c 0
 91 414 84 420 83 430 c 0
 82 437 88 442 98 454 c 0
 129 491 145 527 145 551 c 0
 145 567 143 579 123 579 c 0
EndSplineSet
Validated: 1
EndChar

StartChar: ampersand
Encoding: 38 38 66
Width: 660
VWidth: 0
Flags: W
HStem: -9 47<530.701 615.131> 0 57<179.282 277.937> 353 25<423 479.939 541.035 595> 603 31<187.021 276.362>
VStem: 24 68<137.943 250.159> 106 49<479.179 577.59> 310 45<464.97 576.212>
DStem2: 228 418 163 377 0.661722 -0.749749<-118.495 -12.2722 24.7448 275.367 293.362 297.678 317.171 516.961> 228 418 245 400 0.828198 0.560435<-149.066 -76.8107 3.99154 93.3568> 366 149 381 130 0.580352 0.814365<-89.0912 -6.76766 80.2103 212.434>
LayerCount: 3
Fore
SplineSet
248 57 m 0x7e
 305 57 366 149 366 149 c 1
 181 359 l 1
 181 359 92 311 92 202 c 0
 92 126 188 57 248 57 c 0x7e
234 603 m 0
 197 603 155 575 155 533 c 0
 155 487 228 418 228 418 c 1
 228 418 247 428 261 438 c 0
 289 459 310 483 310 528 c 0
 310 551 284 603 234 603 c 0
163 377 m 1
 135 412 106 447 106 498 c 0
 106 575 156 634 235 634 c 0
 300 634 355 594 355 535 c 0
 355 502 343 475 326 455 c 0
 303 428 250 403 245 400 c 1
 413 214 l 1
 440 251 l 2
 470 292 482 317 482 332 c 0
 482 353 458 353 423 353 c 1
 423 378 l 1
 595 378 l 1
 595 353 l 1
 562 353 542 352 505 304 c 0
 468 257 465 248 427 197 c 1
 461 150 513 38 582 38 c 0
 609 38 622 56 629 56 c 0
 637 56 643 48 643 42 c 0
 643 36 608 -9 546 -9 c 0xbe
 434 -9 402 99 381 130 c 1
 338 78 290 0 207 0 c 0
 109 0 24 75 24 174 c 0
 24 247 86 312 128 348 c 2
 163 377 l 1
EndSplineSet
Validated: 1
EndChar
